<svg width="233" height="233" viewBox="0 0 233 233" fill="none" xmlns="http://www.w3.org/2000/svg">
<path d="M163.962 185.935C148.762 196.361 130.551 201.492 112.143 200.535C93.7358 199.578 76.1555 192.586 62.1184 180.639C48.0813 168.693 38.3687 152.456 34.481 134.439C30.5932 116.421 32.7467 97.624 40.6088 80.9522C48.4708 64.2805 61.6039 50.6615 77.9792 42.1992C94.3545 33.737 113.061 30.9023 131.208 34.1333C149.355 37.3642 165.933 46.4808 178.382 60.0748C190.83 73.6688 198.456 90.9836 200.081 109.344L177.198 111.37C176.018 98.0356 170.48 85.4613 161.44 75.5892C152.399 65.717 140.36 59.0963 127.181 56.75C114.002 54.4036 100.418 56.4622 88.5257 62.6076C76.6337 68.7531 67.0962 78.6434 61.3867 90.7507C55.6771 102.858 54.1132 116.508 56.9365 129.593C59.7599 142.678 66.8134 154.469 77.0073 163.145C87.2012 171.821 99.9683 176.899 113.336 177.594C126.704 178.289 139.929 174.562 150.968 166.991L163.962 185.935Z" fill="#F4AC20"/>
<path d="M199.767 106.398C201.672 121.73 199.306 137.291 192.93 151.365C186.555 165.439 176.417 177.479 163.634 186.158L150.73 167.153C160.013 160.85 167.375 152.106 172.005 141.885C176.635 131.665 178.353 120.364 176.97 109.229L199.767 106.398Z" fill="#E1F1FF"/>
<path d="M19.572 30.4971L22.491 25.042H23.2634L19.9343 31.1738V35.0361H19.2302V31.2285L15.8738 25.042H16.6531L19.572 30.4971ZM27.3171 27.4619C27.9506 27.4619 28.477 27.61 28.8962 27.9062C29.3201 28.2025 29.6345 28.6081 29.8396 29.123C30.0492 29.638 30.1541 30.2282 30.1541 30.8936V31.3926H24.7878C24.7878 32.4134 25.0225 33.1973 25.4919 33.7441C25.9659 34.291 26.6427 34.5645 27.5222 34.5645C27.9825 34.5645 28.3813 34.528 28.7185 34.4551C29.0603 34.3776 29.4386 34.2477 29.8533 34.0654V34.7012C29.4887 34.8652 29.1241 34.9837 28.7595 35.0566C28.3949 35.1341 27.9757 35.1729 27.5017 35.1729C26.7498 35.1729 26.1186 35.0179 25.6082 34.708C25.1023 34.3936 24.7195 33.9515 24.4597 33.3818C24.2045 32.8122 24.0769 32.1468 24.0769 31.3857C24.0769 30.6429 24.2 29.9753 24.446 29.3828C24.6967 28.7904 25.0613 28.3232 25.5398 27.9814C26.0229 27.6351 26.6153 27.4619 27.3171 27.4619ZM27.3103 28.0566C26.5994 28.0566 26.0229 28.2936 25.5808 28.7676C25.1433 29.237 24.8858 29.916 24.8083 30.8047H29.4363C29.4363 30.2624 29.3588 29.7839 29.2039 29.3691C29.0489 28.9544 28.8142 28.6331 28.4998 28.4053C28.1899 28.1729 27.7934 28.0566 27.3103 28.0566ZM36.8464 33.0879C36.8464 33.5299 36.7348 33.9082 36.5115 34.2227C36.2927 34.5326 35.9714 34.7695 35.5476 34.9336C35.1238 35.0931 34.602 35.1729 33.9822 35.1729C33.4672 35.1729 33.0069 35.1273 32.6013 35.0361C32.1957 34.945 31.8562 34.8333 31.5828 34.7012V34.0176C31.9246 34.1862 32.3028 34.3229 32.7175 34.4277C33.1322 34.5326 33.5583 34.585 33.9958 34.585C34.7615 34.585 35.3129 34.4551 35.6501 34.1953C35.9874 33.9355 36.156 33.5801 36.156 33.1289C36.156 32.8327 36.0717 32.5889 35.9031 32.3975C35.739 32.2015 35.502 32.0329 35.1921 31.8916C34.8822 31.7503 34.5085 31.6068 34.071 31.4609C33.6153 31.306 33.2097 31.1533 32.8542 31.0029C32.5033 30.848 32.2276 30.6452 32.0271 30.3945C31.8266 30.1393 31.7263 29.793 31.7263 29.3555C31.7263 28.7585 31.9656 28.2936 32.4441 27.9609C32.9226 27.6283 33.5652 27.4619 34.3718 27.4619C34.8184 27.4619 35.2332 27.5052 35.616 27.5918C36.0033 27.6738 36.3542 27.7809 36.6687 27.9131L36.4226 28.501C36.1401 28.3688 35.8142 28.2617 35.4451 28.1797C35.0759 28.0977 34.7068 28.0566 34.3376 28.0566C33.7315 28.0566 33.2576 28.1637 32.9158 28.3779C32.574 28.5921 32.4031 28.9066 32.4031 29.3213C32.4031 29.6403 32.4851 29.891 32.6492 30.0732C32.8132 30.251 33.0479 30.4014 33.3533 30.5244C33.6586 30.6429 34.0209 30.7751 34.4402 30.9209C34.8731 31.0713 35.2719 31.2285 35.6365 31.3926C36.0056 31.5566 36.2996 31.7686 36.5183 32.0283C36.7371 32.2881 36.8464 32.6413 36.8464 33.0879ZM8.24487 47.7773C8.24487 47.0299 8.30184 46.3486 8.41577 45.7334C8.53426 45.1136 8.70744 44.5667 8.9353 44.0928C9.16317 43.6143 9.45028 43.2109 9.79663 42.8828C10.143 42.5547 10.5486 42.3063 11.0134 42.1377C11.4783 41.9691 12.0001 41.8848 12.5789 41.8848C12.8295 41.8848 13.0688 41.8984 13.2966 41.9258C13.5245 41.9531 13.725 41.9919 13.8982 42.042V42.6709C13.7296 42.6117 13.5336 42.5661 13.3103 42.5342C13.087 42.4977 12.8477 42.4795 12.5925 42.4795C11.8087 42.4795 11.1501 42.6618 10.6169 43.0264C10.0837 43.3864 9.67586 43.9264 9.39331 44.6465C9.11532 45.362 8.96037 46.2507 8.92847 47.3125H8.97632C9.10848 47.0664 9.29305 46.8317 9.53003 46.6084C9.77157 46.3851 10.0701 46.2028 10.4255 46.0615C10.7856 45.9202 11.2094 45.8496 11.697 45.8496C12.2986 45.8496 12.8158 45.9704 13.2488 46.2119C13.6863 46.4535 14.0212 46.7998 14.2537 47.251C14.4906 47.7021 14.6091 48.2376 14.6091 48.8574C14.6091 49.5228 14.4861 50.1038 14.24 50.6006C13.9985 51.0973 13.6475 51.4847 13.1873 51.7627C12.7315 52.0361 12.1824 52.1729 11.5398 52.1729C10.9929 52.1729 10.5144 52.0612 10.1042 51.8379C9.69409 51.6146 9.35002 51.3024 9.07202 50.9014C8.79858 50.5003 8.59123 50.0355 8.44995 49.5068C8.31323 48.9736 8.24487 48.3971 8.24487 47.7773ZM11.533 51.5713C12.2849 51.5713 12.8682 51.3366 13.283 50.8672C13.7022 50.3932 13.9119 49.7233 13.9119 48.8574C13.9119 48.11 13.7205 47.5199 13.3376 47.0869C12.9548 46.6494 12.3761 46.4307 11.6013 46.4307C11.0636 46.4307 10.5987 46.5378 10.2068 46.752C9.81942 46.9661 9.52091 47.2327 9.31128 47.5518C9.10164 47.8662 8.99683 48.1761 8.99683 48.4814C8.99683 48.7686 9.03784 49.0876 9.11987 49.4385C9.2019 49.7894 9.3409 50.1289 9.53687 50.457C9.73283 50.7806 9.99259 51.0472 10.3162 51.2568C10.6443 51.4665 11.0499 51.5713 11.533 51.5713ZM19.3396 41.8984C19.9047 41.8984 20.3992 41.9896 20.823 42.1719C21.2514 42.3542 21.5841 42.6185 21.821 42.9648C22.058 43.3112 22.1765 43.7305 22.1765 44.2227C22.1765 44.6283 22.0831 44.9837 21.8962 45.2891C21.7139 45.5944 21.461 45.8633 21.1375 46.0957C20.8139 46.3236 20.4379 46.5286 20.0095 46.7109C20.5108 46.9023 20.9483 47.1234 21.322 47.374C21.6957 47.6247 21.9851 47.9209 22.1902 48.2627C22.3998 48.6045 22.5046 49.0101 22.5046 49.4795C22.5046 50.0446 22.3656 50.5299 22.0876 50.9355C21.8097 51.3366 21.4314 51.6442 20.9529 51.8584C20.4744 52.068 19.9275 52.1729 19.3123 52.1729C18.6742 52.1729 18.1205 52.0658 17.6511 51.8516C17.1817 51.6374 16.8171 51.3343 16.5574 50.9424C16.3022 50.5459 16.1746 50.0833 16.1746 49.5547C16.1746 49.0625 16.2771 48.641 16.4822 48.29C16.6918 47.9346 16.9789 47.6315 17.3435 47.3809C17.7081 47.1302 18.1228 46.9183 18.5876 46.7451C18.2048 46.5765 17.8539 46.3828 17.5349 46.1641C17.2205 45.9453 16.9675 45.681 16.7761 45.3711C16.5893 45.0566 16.4958 44.6784 16.4958 44.2363C16.4958 43.7487 16.6166 43.3317 16.8582 42.9854C17.1042 42.639 17.4415 42.3724 17.8699 42.1855C18.2983 41.9941 18.7882 41.8984 19.3396 41.8984ZM16.865 49.5547C16.865 50.1699 17.0815 50.6621 17.5144 51.0312C17.9473 51.4004 18.5421 51.585 19.2986 51.585C20.0551 51.585 20.6635 51.4027 21.1238 51.0381C21.5841 50.6735 21.8142 50.1562 21.8142 49.4863C21.8142 49.1126 21.7253 48.7845 21.5476 48.502C21.3744 48.2194 21.1192 47.971 20.782 47.7568C20.4493 47.5381 20.0437 47.3421 19.5652 47.1689L19.2371 47.0459C18.7722 47.2145 18.3621 47.4105 18.0066 47.6338C17.6511 47.8525 17.3708 48.1169 17.1658 48.4268C16.9653 48.7367 16.865 49.1126 16.865 49.5547ZM19.3328 42.4932C18.7084 42.4932 18.1934 42.6458 17.7878 42.9512C17.3868 43.2565 17.1863 43.6917 17.1863 44.2568C17.1863 44.6351 17.2797 44.9564 17.4666 45.2207C17.6534 45.485 17.9109 45.7129 18.239 45.9043C18.5717 46.0911 18.9522 46.2643 19.3806 46.4238C19.8272 46.2415 20.2055 46.0501 20.5154 45.8496C20.8298 45.6491 21.0691 45.4189 21.2332 45.1592C21.3972 44.8994 21.4792 44.5918 21.4792 44.2363C21.4792 43.6621 21.2878 43.2292 20.905 42.9375C20.5222 42.6413 19.9981 42.4932 19.3328 42.4932ZM24.4802 51.5508C24.4802 51.3503 24.5258 51.1976 24.6169 51.0928C24.7081 50.9834 24.8425 50.9287 25.0203 50.9287C25.2162 50.9287 25.3598 50.9834 25.4509 51.0928C25.5421 51.1976 25.5876 51.3503 25.5876 51.5508C25.5876 51.7513 25.5421 51.9062 25.4509 52.0156C25.3598 52.125 25.2162 52.1797 25.0203 52.1797C24.8425 52.1797 24.7081 52.125 24.6169 52.0156C24.5258 51.9062 24.4802 51.7513 24.4802 51.5508ZM30.6736 41.8984C31.2387 41.8984 31.7332 41.9896 32.157 42.1719C32.5854 42.3542 32.9181 42.6185 33.155 42.9648C33.392 43.3112 33.5105 43.7305 33.5105 44.2227C33.5105 44.6283 33.4171 44.9837 33.2302 45.2891C33.0479 45.5944 32.795 45.8633 32.4714 46.0957C32.1479 46.3236 31.7719 46.5286 31.3435 46.7109C31.8448 46.9023 32.2823 47.1234 32.656 47.374C33.0297 47.6247 33.3191 47.9209 33.5242 48.2627C33.7338 48.6045 33.8386 49.0101 33.8386 49.4795C33.8386 50.0446 33.6996 50.5299 33.4216 50.9355C33.1436 51.3366 32.7654 51.6442 32.2869 51.8584C31.8083 52.068 31.2615 52.1729 30.6462 52.1729C30.0082 52.1729 29.4545 52.0658 28.9851 51.8516C28.5157 51.6374 28.1511 51.3343 27.8914 50.9424C27.6361 50.5459 27.5085 50.0833 27.5085 49.5547C27.5085 49.0625 27.6111 48.641 27.8162 48.29C28.0258 47.9346 28.3129 47.6315 28.6775 47.3809C29.0421 47.1302 29.4568 46.9183 29.9216 46.7451C29.5388 46.5765 29.1879 46.3828 28.8689 46.1641C28.5544 45.9453 28.3015 45.681 28.1101 45.3711C27.9233 45.0566 27.8298 44.6784 27.8298 44.2363C27.8298 43.7487 27.9506 43.3317 28.1921 42.9854C28.4382 42.639 28.7755 42.3724 29.2039 42.1855C29.6322 41.9941 30.1222 41.8984 30.6736 41.8984ZM28.199 49.5547C28.199 50.1699 28.4154 50.6621 28.8484 51.0312C29.2813 51.4004 29.8761 51.585 30.6326 51.585C31.3891 51.585 31.9975 51.4027 32.4578 51.0381C32.9181 50.6735 33.1482 50.1562 33.1482 49.4863C33.1482 49.1126 33.0593 48.7845 32.8816 48.502C32.7084 48.2194 32.4532 47.971 32.116 47.7568C31.7833 47.5381 31.3777 47.3421 30.8992 47.1689L30.571 47.0459C30.1062 47.2145 29.696 47.4105 29.3406 47.6338C28.9851 47.8525 28.7048 48.1169 28.4998 48.4268C28.2992 48.7367 28.199 49.1126 28.199 49.5547ZM30.6667 42.4932C30.0424 42.4932 29.5274 42.6458 29.1218 42.9512C28.7208 43.2565 28.5203 43.6917 28.5203 44.2568C28.5203 44.6351 28.6137 44.9564 28.8005 45.2207C28.9874 45.485 29.2449 45.7129 29.573 45.9043C29.9057 46.0911 30.2862 46.2643 30.7146 46.4238C31.1612 46.2415 31.5395 46.0501 31.8494 45.8496C32.1638 45.6491 32.4031 45.4189 32.5671 45.1592C32.7312 44.8994 32.8132 44.5918 32.8132 44.2363C32.8132 43.6621 32.6218 43.2292 32.239 42.9375C31.8562 42.6413 31.3321 42.4932 30.6667 42.4932ZM37.4343 41.8984C38.0997 41.8984 38.5964 42.1673 38.9246 42.7051C39.2527 43.2428 39.4167 44.0153 39.4167 45.0225C39.4167 46.0524 39.2458 46.8363 38.9041 47.374C38.5623 47.9072 38.0678 48.1738 37.4207 48.1738C36.7872 48.1738 36.3018 47.9027 35.9646 47.3604C35.6319 46.818 35.4656 46.0387 35.4656 45.0225C35.4656 44.0062 35.6342 43.2314 35.9714 42.6982C36.3132 42.165 36.8009 41.8984 37.4343 41.8984ZM37.4343 42.4453C36.9968 42.4453 36.6619 42.6595 36.4294 43.0879C36.2016 43.5163 36.0876 44.1611 36.0876 45.0225C36.0876 45.8792 36.1993 46.5286 36.4226 46.9707C36.6505 47.4082 36.9832 47.627 37.4207 47.627C37.8809 47.627 38.225 47.4059 38.4529 46.9639C38.6853 46.5173 38.8015 45.8701 38.8015 45.0225C38.8015 44.1794 38.6921 43.5391 38.4734 43.1016C38.2546 42.6641 37.9083 42.4453 37.4343 42.4453ZM43.4431 42.042L37.8992 52.0361H37.2498L42.7937 42.042H43.4431ZM43.2449 45.9043C43.9011 45.9043 44.3933 46.1732 44.7214 46.7109C45.0541 47.2487 45.2205 48.0212 45.2205 49.0283C45.2205 50.0583 45.0496 50.8398 44.7078 51.373C44.366 51.9062 43.8715 52.1729 43.2244 52.1729C42.5909 52.1729 42.1056 51.904 41.7683 51.3662C41.4356 50.8239 41.2693 50.0446 41.2693 49.0283C41.2693 48.012 41.4379 47.2373 41.7751 46.7041C42.1169 46.1709 42.6069 45.9043 43.2449 45.9043ZM43.2449 46.4512C42.8028 46.4512 42.4656 46.6654 42.2332 47.0938C42.0053 47.5176 41.8914 48.1624 41.8914 49.0283C41.8914 49.8851 42.003 50.5322 42.2263 50.9697C42.4542 51.4072 42.7869 51.626 43.2244 51.626C43.6847 51.626 44.0287 51.4072 44.2566 50.9697C44.489 50.5277 44.6052 49.8805 44.6052 49.0283C44.6052 48.1852 44.4958 47.5449 44.2771 47.1074C44.0583 46.6699 43.7143 46.4512 43.2449 46.4512Z" fill="#FBFAFA"/>
<path d="M199.234 185.107H198.516L192.61 176.269H192.576C192.585 176.515 192.592 176.765 192.596 177.021C192.605 177.271 192.612 177.531 192.617 177.8C192.626 178.064 192.63 178.338 192.63 178.62V185.107H191.961V175.113H192.685L198.571 183.925H198.605C198.601 183.724 198.594 183.492 198.585 183.228C198.58 182.963 198.573 182.692 198.564 182.414C198.56 182.136 198.557 181.874 198.557 181.628V175.113H199.234V185.107ZM208.052 181.382C208.052 181.956 207.982 182.48 207.84 182.954C207.699 183.424 207.49 183.829 207.212 184.171C206.934 184.513 206.587 184.777 206.172 184.964C205.762 185.151 205.284 185.244 204.737 185.244C204.217 185.244 203.755 185.153 203.349 184.971C202.944 184.784 202.6 184.52 202.317 184.178C202.039 183.836 201.827 183.43 201.681 182.961C201.535 182.487 201.463 181.961 201.463 181.382C201.463 180.584 201.595 179.898 201.859 179.324C202.128 178.745 202.511 178.303 203.007 177.998C203.509 177.688 204.108 177.533 204.805 177.533C205.525 177.533 206.125 177.697 206.603 178.025C207.086 178.349 207.449 178.8 207.69 179.379C207.932 179.958 208.052 180.625 208.052 181.382ZM202.173 181.382C202.173 182.034 202.267 182.603 202.454 183.091C202.641 183.578 202.923 183.959 203.301 184.232C203.684 184.506 204.167 184.643 204.751 184.643C205.348 184.643 205.838 184.506 206.22 184.232C206.603 183.959 206.886 183.576 207.068 183.084C207.25 182.592 207.341 182.024 207.341 181.382C207.341 180.757 207.255 180.201 207.082 179.714C206.908 179.226 206.635 178.843 206.261 178.565C205.888 178.283 205.4 178.142 204.798 178.142C203.937 178.142 203.283 178.429 202.837 179.003C202.394 179.577 202.173 180.37 202.173 181.382ZM187.1 194.417C187.1 194.859 187.009 195.249 186.827 195.586C186.644 195.923 186.394 196.199 186.075 196.413C185.76 196.627 185.398 196.773 184.988 196.851V196.892C185.772 196.992 186.371 197.249 186.786 197.664C187.2 198.074 187.408 198.635 187.408 199.346C187.408 199.906 187.276 200.405 187.011 200.843C186.747 201.28 186.348 201.624 185.815 201.875C185.286 202.121 184.621 202.244 183.819 202.244C183.277 202.244 182.773 202.194 182.308 202.094C181.843 201.993 181.42 201.854 181.037 201.677V201C181.415 201.187 181.85 201.342 182.342 201.465C182.839 201.583 183.334 201.643 183.826 201.643C184.792 201.643 185.51 201.435 185.979 201.021C186.449 200.601 186.683 200.041 186.683 199.339C186.683 198.828 186.558 198.421 186.307 198.115C186.057 197.805 185.703 197.58 185.248 197.438C184.797 197.297 184.266 197.227 183.655 197.227H182.561V196.618H183.662C184.177 196.618 184.639 196.538 185.049 196.379C185.46 196.215 185.783 195.973 186.02 195.654C186.262 195.331 186.382 194.93 186.382 194.451C186.382 193.831 186.184 193.364 185.788 193.05C185.396 192.735 184.872 192.578 184.215 192.578C183.865 192.578 183.534 192.615 183.224 192.688C182.919 192.76 182.623 192.868 182.336 193.009C182.053 193.146 181.77 193.312 181.488 193.508L181.132 193.009C181.524 192.708 181.976 192.46 182.486 192.264C183.001 192.068 183.575 191.97 184.209 191.97C185.116 191.97 185.824 192.188 186.335 192.626C186.845 193.063 187.1 193.66 187.1 194.417ZM193.054 202.107H192.378V194.561C192.378 194.292 192.378 194.057 192.378 193.856C192.378 193.651 192.38 193.469 192.384 193.31C192.389 193.146 192.396 192.991 192.405 192.845C192.282 192.968 192.163 193.075 192.049 193.166C191.936 193.257 191.79 193.373 191.612 193.515L190.135 194.636L189.753 194.144L192.473 192.113H193.054V202.107ZM197.511 201.622C197.511 201.422 197.557 201.269 197.648 201.164C197.739 201.055 197.874 201 198.051 201C198.247 201 198.391 201.055 198.482 201.164C198.573 201.269 198.619 201.422 198.619 201.622C198.619 201.823 198.573 201.978 198.482 202.087C198.391 202.196 198.247 202.251 198.051 202.251C197.874 202.251 197.739 202.196 197.648 202.087C197.557 201.978 197.511 201.823 197.511 201.622ZM206.432 194.417C206.432 194.859 206.341 195.249 206.159 195.586C205.977 195.923 205.726 196.199 205.407 196.413C205.092 196.627 204.73 196.773 204.32 196.851V196.892C205.104 196.992 205.703 197.249 206.118 197.664C206.533 198.074 206.74 198.635 206.74 199.346C206.74 199.906 206.608 200.405 206.343 200.843C206.079 201.28 205.68 201.624 205.147 201.875C204.618 202.121 203.953 202.244 203.151 202.244C202.609 202.244 202.105 202.194 201.64 202.094C201.175 201.993 200.752 201.854 200.369 201.677V201C200.747 201.187 201.182 201.342 201.674 201.465C202.171 201.583 202.666 201.643 203.158 201.643C204.124 201.643 204.842 201.435 205.311 201.021C205.781 200.601 206.015 200.041 206.015 199.339C206.015 198.828 205.89 198.421 205.639 198.115C205.389 197.805 205.035 197.58 204.58 197.438C204.129 197.297 203.598 197.227 202.987 197.227H201.893V196.618H202.994C203.509 196.618 203.971 196.538 204.381 196.379C204.792 196.215 205.115 195.973 205.352 195.654C205.594 195.331 205.714 194.93 205.714 194.451C205.714 193.831 205.516 193.364 205.12 193.05C204.728 192.735 204.204 192.578 203.547 192.578C203.197 192.578 202.866 192.615 202.556 192.688C202.251 192.76 201.955 192.868 201.668 193.009C201.385 193.146 201.102 193.312 200.82 193.508L200.464 193.009C200.856 192.708 201.308 192.46 201.818 192.264C202.333 192.068 202.907 191.97 203.541 191.97C204.448 191.97 205.156 192.188 205.667 192.626C206.177 193.063 206.432 193.66 206.432 194.417ZM210.465 191.97C211.131 191.97 211.628 192.239 211.956 192.776C212.284 193.314 212.448 194.087 212.448 195.094C212.448 196.124 212.277 196.908 211.935 197.445C211.593 197.979 211.099 198.245 210.452 198.245C209.818 198.245 209.333 197.974 208.996 197.432C208.663 196.889 208.497 196.11 208.497 195.094C208.497 194.077 208.665 193.303 209.003 192.77C209.344 192.236 209.832 191.97 210.465 191.97ZM210.465 192.517C210.028 192.517 209.693 192.731 209.461 193.159C209.233 193.588 209.119 194.232 209.119 195.094C209.119 195.951 209.23 196.6 209.454 197.042C209.682 197.479 210.014 197.698 210.452 197.698C210.912 197.698 211.256 197.477 211.484 197.035C211.716 196.589 211.833 195.941 211.833 195.094C211.833 194.251 211.723 193.61 211.505 193.173C211.286 192.735 210.939 192.517 210.465 192.517ZM216.474 192.113L210.93 202.107H210.281L215.825 192.113H216.474ZM216.276 195.976C216.932 195.976 217.424 196.244 217.753 196.782C218.085 197.32 218.252 198.092 218.252 199.1C218.252 200.13 218.081 200.911 217.739 201.444C217.397 201.978 216.903 202.244 216.255 202.244C215.622 202.244 215.137 201.975 214.799 201.438C214.467 200.895 214.3 200.116 214.3 199.1C214.3 198.083 214.469 197.309 214.806 196.775C215.148 196.242 215.638 195.976 216.276 195.976ZM216.276 196.522C215.834 196.522 215.497 196.737 215.264 197.165C215.036 197.589 214.922 198.234 214.922 199.1C214.922 199.956 215.034 200.604 215.257 201.041C215.485 201.479 215.818 201.697 216.255 201.697C216.716 201.697 217.06 201.479 217.288 201.041C217.52 200.599 217.636 199.952 217.636 199.1C217.636 198.257 217.527 197.616 217.308 197.179C217.089 196.741 216.745 196.522 216.276 196.522Z" fill="#FBFAFA"/>
</svg>
