<svg width="235" height="233" viewBox="0 0 235 233" fill="none" xmlns="http://www.w3.org/2000/svg">
<path d="M153.6 196.061C136.634 203.718 117.656 205.72 99.4657 201.771C81.2754 197.822 64.8359 188.131 52.572 174.129C40.3081 160.126 32.8692 142.552 31.3526 124C29.836 105.448 34.322 86.8998 44.1489 71.0912C53.9757 55.2825 68.6231 43.0506 85.9305 36.1997C103.238 29.3489 122.289 28.2418 140.273 33.0418C158.258 37.8418 174.224 48.2947 185.815 62.8586C197.407 77.4226 204.012 95.3265 204.654 113.929L180.898 114.75C180.431 101.24 175.635 88.2381 167.217 77.6615C158.799 67.0849 147.204 59.4939 134.144 56.008C121.083 52.5222 107.248 53.3262 94.6791 58.3014C82.1102 63.2766 71.473 72.1596 64.3366 83.6401C57.2002 95.1206 53.9424 108.591 55.0438 122.064C56.1452 135.536 61.5474 148.299 70.4536 158.468C79.3599 168.637 91.2985 175.674 104.509 178.542C117.719 181.41 131.501 179.956 143.822 174.395L153.6 196.061Z" fill="#F4AC20"/>
<path d="M204.694 112.602C205.532 130.149 201.027 147.536 191.775 162.469C182.523 177.401 168.958 189.176 152.874 196.237L143.318 174.473C154.999 169.344 164.85 160.793 171.569 149.949C178.288 139.105 181.559 126.478 180.951 113.735L204.694 112.602Z" fill="#E1F1FF"/>
<path d="M13.1585 35.3115L16.0775 29.8564H16.8499L13.5208 35.9883V39.8506H12.8167V36.043L9.46027 29.8564H10.2396L13.1585 35.3115ZM20.9036 32.2764C21.5371 32.2764 22.0635 32.4245 22.4827 32.7207C22.9066 33.0169 23.221 33.4225 23.4261 33.9375C23.6357 34.4525 23.7405 35.0426 23.7405 35.708V36.207H18.3743C18.3743 37.2279 18.609 38.0117 19.0784 38.5586C19.5524 39.1055 20.2291 39.3789 21.1087 39.3789C21.569 39.3789 21.9678 39.3424 22.305 39.2695C22.6468 39.1921 23.025 39.0622 23.4398 38.8799V39.5156C23.0752 39.6797 22.7106 39.7982 22.346 39.8711C21.9814 39.9486 21.5622 39.9873 21.0882 39.9873C20.3362 39.9873 19.7051 39.8324 19.1946 39.5225C18.6888 39.208 18.306 38.766 18.0462 38.1963C17.791 37.6266 17.6634 36.9613 17.6634 36.2002C17.6634 35.4574 17.7864 34.7897 18.0325 34.1973C18.2832 33.6048 18.6478 33.1377 19.1263 32.7959C19.6094 32.4495 20.2018 32.2764 20.9036 32.2764ZM20.8968 32.8711C20.1859 32.8711 19.6094 33.1081 19.1673 33.582C18.7298 34.0514 18.4723 34.7305 18.3948 35.6191H23.0228C23.0228 35.0768 22.9453 34.5983 22.7903 34.1836C22.6354 33.7689 22.4007 33.4476 22.0862 33.2197C21.7763 32.9873 21.3799 32.8711 20.8968 32.8711ZM30.4329 37.9023C30.4329 38.3444 30.3213 38.7227 30.098 39.0371C29.8792 39.347 29.5579 39.584 29.1341 39.748C28.7103 39.9076 28.1885 39.9873 27.5687 39.9873C27.0537 39.9873 26.5934 39.9417 26.1878 39.8506C25.7822 39.7594 25.4427 39.6478 25.1693 39.5156V38.832C25.511 39.0007 25.8893 39.1374 26.304 39.2422C26.7187 39.347 27.1448 39.3994 27.5823 39.3994C28.348 39.3994 28.8994 39.2695 29.2366 39.0098C29.5739 38.75 29.7425 38.3945 29.7425 37.9434C29.7425 37.6471 29.6582 37.4033 29.4896 37.2119C29.3255 37.016 29.0885 36.8473 28.7786 36.7061C28.4687 36.5648 28.095 36.4212 27.6575 36.2754C27.2018 36.1204 26.7962 35.9678 26.4407 35.8174C26.0898 35.6624 25.8141 35.4596 25.6136 35.209C25.4131 34.9538 25.3128 34.6074 25.3128 34.1699C25.3128 33.5729 25.5521 33.1081 26.0306 32.7754C26.5091 32.4427 27.1517 32.2764 27.9583 32.2764C28.4049 32.2764 28.8196 32.3197 29.2025 32.4062C29.5898 32.4883 29.9407 32.5954 30.2552 32.7275L30.0091 33.3154C29.7265 33.1833 29.4007 33.0762 29.0316 32.9941C28.6624 32.9121 28.2933 32.8711 27.9241 32.8711C27.318 32.8711 26.8441 32.9782 26.5023 33.1924C26.1605 33.4066 25.9896 33.721 25.9896 34.1357C25.9896 34.4548 26.0716 34.7054 26.2357 34.8877C26.3997 35.0654 26.6344 35.2158 26.9398 35.3389C27.2451 35.4574 27.6074 35.5895 28.0267 35.7354C28.4596 35.8857 28.8584 36.043 29.223 36.207C29.5921 36.3711 29.886 36.583 30.1048 36.8428C30.3235 37.1025 30.4329 37.4557 30.4329 37.9023ZM4.92804 46.7129C5.49314 46.7129 5.98761 46.804 6.41144 46.9863C6.83982 47.1686 7.17251 47.4329 7.40948 47.7793C7.64646 48.1257 7.76495 48.5449 7.76495 49.0371C7.76495 49.4427 7.67153 49.7982 7.48468 50.1035C7.30239 50.4089 7.04946 50.6777 6.72589 50.9102C6.40232 51.138 6.02635 51.3431 5.59796 51.5254C6.09926 51.7168 6.53676 51.9378 6.91046 52.1885C7.28416 52.4391 7.57355 52.7354 7.77863 53.0771C7.98826 53.4189 8.09308 53.8245 8.09308 54.2939C8.09308 54.859 7.95408 55.3444 7.67609 55.75C7.39809 56.151 7.01984 56.4587 6.54132 56.6729C6.06281 56.8825 5.51593 56.9873 4.9007 56.9873C4.26267 56.9873 3.70896 56.8802 3.23956 56.666C2.77016 56.4518 2.40558 56.1488 2.14581 55.7568C1.8906 55.3604 1.763 54.8978 1.763 54.3691C1.763 53.877 1.86554 53.4554 2.07062 53.1045C2.28025 52.749 2.56736 52.446 2.93195 52.1953C3.29653 51.9447 3.71124 51.7327 4.17609 51.5596C3.79327 51.391 3.44236 51.1973 3.12335 50.9785C2.8089 50.7598 2.55597 50.4954 2.36456 50.1855C2.17771 49.8711 2.08429 49.4928 2.08429 49.0508C2.08429 48.5632 2.20506 48.1462 2.44659 47.7998C2.69269 47.4535 3.02993 47.1868 3.45831 47C3.8867 46.8086 4.37661 46.7129 4.92804 46.7129ZM2.45343 54.3691C2.45343 54.9844 2.6699 55.4766 3.10284 55.8457C3.53579 56.2148 4.13051 56.3994 4.88702 56.3994C5.64353 56.3994 6.25193 56.2171 6.71222 55.8525C7.17251 55.488 7.40265 54.9707 7.40265 54.3008C7.40265 53.9271 7.31378 53.599 7.13605 53.3164C6.96287 53.0339 6.70766 52.7855 6.37042 52.5713C6.03774 52.3525 5.63214 52.1566 5.15363 51.9834L4.8255 51.8604C4.36066 52.029 3.9505 52.2249 3.59503 52.4482C3.23956 52.667 2.95929 52.9313 2.75421 53.2412C2.55369 53.5511 2.45343 53.9271 2.45343 54.3691ZM4.9212 47.3076C4.29685 47.3076 3.78188 47.4603 3.37628 47.7656C2.97524 48.071 2.77472 48.5062 2.77472 49.0713C2.77472 49.4495 2.86814 49.7708 3.05499 50.0352C3.24184 50.2995 3.49933 50.5273 3.82745 50.7188C4.16014 50.9056 4.54067 51.0788 4.96906 51.2383C5.41567 51.056 5.79392 50.8646 6.10382 50.6641C6.41827 50.4635 6.65753 50.2334 6.82159 49.9736C6.98566 49.7139 7.06769 49.4062 7.06769 49.0508C7.06769 48.4766 6.87628 48.0436 6.49347 47.752C6.11066 47.4557 5.58657 47.3076 4.9212 47.3076ZM13.6097 56.8506H12.9329V49.3037C12.9329 49.0348 12.9329 48.8001 12.9329 48.5996C12.9329 48.3945 12.9352 48.2122 12.9398 48.0527C12.9443 47.8887 12.9512 47.7337 12.9603 47.5879C12.8372 47.7109 12.7187 47.818 12.6048 47.9092C12.4909 48.0003 12.345 48.1165 12.1673 48.2578L10.6907 49.3789L10.3079 48.8867L13.0286 46.8564H13.6097V56.8506ZM18.0667 56.3652C18.0667 56.1647 18.1123 56.012 18.2034 55.9072C18.2946 55.7979 18.429 55.7432 18.6068 55.7432C18.8027 55.7432 18.9463 55.7979 19.0374 55.9072C19.1286 56.012 19.1741 56.1647 19.1741 56.3652C19.1741 56.5658 19.1286 56.7207 19.0374 56.8301C18.9463 56.9395 18.8027 56.9941 18.6068 56.9941C18.429 56.9941 18.2946 56.9395 18.2034 56.8301C18.1123 56.7207 18.0667 56.5658 18.0667 56.3652ZM26.9876 49.1602C26.9876 49.6022 26.8965 49.9919 26.7142 50.3291C26.5319 50.6663 26.2812 50.9421 25.9622 51.1562C25.6478 51.3704 25.2855 51.5163 24.8753 51.5938V51.6348C25.6592 51.735 26.2584 51.9925 26.6732 52.4072C27.0879 52.8174 27.2952 53.3779 27.2952 54.0889C27.2952 54.6494 27.1631 55.1484 26.8987 55.5859C26.6344 56.0234 26.2357 56.3675 25.7025 56.6182C25.1738 56.8643 24.5084 56.9873 23.7064 56.9873C23.164 56.9873 22.6605 56.9372 22.1956 56.8369C21.7308 56.7367 21.3069 56.5977 20.9241 56.4199V55.7432C21.3024 55.93 21.7376 56.085 22.2298 56.208C22.7265 56.3265 23.221 56.3857 23.7132 56.3857C24.6793 56.3857 25.3971 56.1784 25.8665 55.7637C26.3359 55.3444 26.5706 54.7839 26.5706 54.082C26.5706 53.5716 26.4453 53.1637 26.1946 52.8584C25.944 52.5485 25.5908 52.3229 25.1351 52.1816C24.6839 52.0404 24.153 51.9697 23.5423 51.9697H22.4485V51.3613H23.5491C24.0641 51.3613 24.5267 51.2816 24.9368 51.1221C25.347 50.958 25.6706 50.7165 25.9075 50.3975C26.1491 50.0739 26.2698 49.6729 26.2698 49.1943C26.2698 48.5745 26.0716 48.1074 25.6751 47.793C25.2832 47.4785 24.7591 47.3213 24.1028 47.3213C23.7519 47.3213 23.4215 47.3577 23.1116 47.4307C22.8063 47.5036 22.5101 47.6107 22.223 47.752C21.9404 47.8887 21.6579 48.055 21.3753 48.251L21.0198 47.752C21.4118 47.4512 21.8629 47.2028 22.3734 47.0068C22.8883 46.8109 23.4625 46.7129 24.096 46.7129C25.0029 46.7129 25.7116 46.9316 26.222 47.3691C26.7324 47.8066 26.9876 48.4036 26.9876 49.1602ZM31.0208 46.7129C31.6862 46.7129 32.1829 46.9818 32.511 47.5195C32.8392 48.0573 33.0032 48.8298 33.0032 49.8369C33.0032 50.8669 32.8323 51.6507 32.4905 52.1885C32.1487 52.7217 31.6543 52.9883 31.0071 52.9883C30.3737 52.9883 29.8883 52.7171 29.5511 52.1748C29.2184 51.6325 29.0521 50.8532 29.0521 49.8369C29.0521 48.8206 29.2207 48.0459 29.5579 47.5127C29.8997 46.9795 30.3873 46.7129 31.0208 46.7129ZM31.0208 47.2598C30.5833 47.2598 30.2484 47.474 30.0159 47.9023C29.7881 48.3307 29.6741 48.9756 29.6741 49.8369C29.6741 50.6937 29.7858 51.3431 30.0091 51.7852C30.237 52.2227 30.5696 52.4414 31.0071 52.4414C31.4674 52.4414 31.8115 52.2204 32.0394 51.7783C32.2718 51.3317 32.388 50.6846 32.388 49.8369C32.388 48.9938 32.2786 48.3535 32.0599 47.916C31.8411 47.4785 31.4948 47.2598 31.0208 47.2598ZM37.0296 46.8564L31.4857 56.8506H30.8362L36.3802 46.8564H37.0296ZM36.8314 50.7188C37.4876 50.7188 37.9798 50.9876 38.3079 51.5254C38.6406 52.0632 38.8069 52.8356 38.8069 53.8428C38.8069 54.8727 38.636 55.6543 38.2943 56.1875C37.9525 56.7207 37.458 56.9873 36.8109 56.9873C36.1774 56.9873 35.692 56.7184 35.3548 56.1807C35.0221 55.6383 34.8558 54.859 34.8558 53.8428C34.8558 52.8265 35.0244 52.0518 35.3616 51.5186C35.7034 50.9854 36.1933 50.7188 36.8314 50.7188ZM36.8314 51.2656C36.3893 51.2656 36.0521 51.4798 35.8196 51.9082C35.5918 52.332 35.4778 52.9769 35.4778 53.8428C35.4778 54.6995 35.5895 55.3467 35.8128 55.7842C36.0407 56.2217 36.3734 56.4404 36.8109 56.4404C37.2711 56.4404 37.6152 56.2217 37.8431 55.7842C38.0755 55.3421 38.1917 54.695 38.1917 53.8428C38.1917 52.9997 38.0823 52.3594 37.8636 51.9219C37.6448 51.4844 37.3008 51.2656 36.8314 51.2656Z" fill="#FBFAFA"/>
<path d="M203.427 195.134H202.709L196.803 186.295H196.769C196.778 186.541 196.785 186.792 196.789 187.047C196.799 187.298 196.805 187.557 196.81 187.826C196.819 188.09 196.824 188.364 196.824 188.646V195.134H196.154V185.14H196.878L202.764 193.951H202.798C202.794 193.751 202.787 193.518 202.778 193.254C202.773 192.99 202.766 192.718 202.757 192.44C202.753 192.162 202.75 191.9 202.75 191.654V185.14H203.427V195.134ZM212.246 191.408C212.246 191.982 212.175 192.507 212.034 192.98C211.892 193.45 211.683 193.855 211.405 194.197C211.127 194.539 210.78 194.803 210.366 194.99C209.956 195.177 209.477 195.271 208.93 195.271C208.411 195.271 207.948 195.179 207.542 194.997C207.137 194.81 206.793 194.546 206.51 194.204C206.232 193.862 206.02 193.457 205.874 192.987C205.729 192.513 205.656 191.987 205.656 191.408C205.656 190.611 205.788 189.925 206.052 189.351C206.321 188.772 206.704 188.33 207.201 188.024C207.702 187.715 208.301 187.56 208.998 187.56C209.719 187.56 210.318 187.724 210.796 188.052C211.279 188.375 211.642 188.826 211.883 189.405C212.125 189.984 212.246 190.652 212.246 191.408ZM206.367 191.408C206.367 192.06 206.46 192.63 206.647 193.117C206.834 193.605 207.116 193.985 207.495 194.259C207.877 194.532 208.36 194.669 208.944 194.669C209.541 194.669 210.031 194.532 210.414 194.259C210.796 193.985 211.079 193.603 211.261 193.11C211.443 192.618 211.535 192.051 211.535 191.408C211.535 190.784 211.448 190.228 211.275 189.74C211.102 189.253 210.828 188.87 210.455 188.592C210.081 188.309 209.593 188.168 208.992 188.168C208.13 188.168 207.476 188.455 207.03 189.029C206.588 189.604 206.367 190.396 206.367 191.408ZM189.249 212.134H188.573V204.587C188.573 204.318 188.573 204.083 188.573 203.883C188.573 203.678 188.575 203.495 188.58 203.336C188.584 203.172 188.591 203.017 188.6 202.871C188.477 202.994 188.359 203.101 188.245 203.192C188.131 203.284 187.985 203.4 187.807 203.541L186.331 204.662L185.948 204.17L188.668 202.14H189.249V212.134ZM196.564 201.996C197.129 201.996 197.623 202.087 198.047 202.27C198.476 202.452 198.808 202.716 199.045 203.062C199.282 203.409 199.401 203.828 199.401 204.32C199.401 204.726 199.307 205.081 199.121 205.387C198.938 205.692 198.685 205.961 198.362 206.193C198.038 206.421 197.662 206.626 197.234 206.809C197.735 207 198.173 207.221 198.546 207.472C198.92 207.722 199.209 208.019 199.414 208.36C199.624 208.702 199.729 209.108 199.729 209.577C199.729 210.142 199.59 210.628 199.312 211.033C199.034 211.434 198.656 211.742 198.177 211.956C197.699 212.166 197.152 212.271 196.537 212.271C195.899 212.271 195.345 212.163 194.875 211.949C194.406 211.735 194.041 211.432 193.782 211.04C193.526 210.644 193.399 210.181 193.399 209.652C193.399 209.16 193.501 208.739 193.706 208.388C193.916 208.032 194.203 207.729 194.568 207.479C194.932 207.228 195.347 207.016 195.812 206.843C195.429 206.674 195.078 206.48 194.759 206.262C194.445 206.043 194.192 205.779 194 205.469C193.814 205.154 193.72 204.776 193.72 204.334C193.72 203.846 193.841 203.429 194.082 203.083C194.329 202.737 194.666 202.47 195.094 202.283C195.523 202.092 196.012 201.996 196.564 201.996ZM194.089 209.652C194.089 210.268 194.306 210.76 194.739 211.129C195.172 211.498 195.766 211.683 196.523 211.683C197.279 211.683 197.888 211.5 198.348 211.136C198.808 210.771 199.039 210.254 199.039 209.584C199.039 209.21 198.95 208.882 198.772 208.6C198.599 208.317 198.344 208.069 198.006 207.854C197.674 207.636 197.268 207.44 196.789 207.267L196.461 207.144C195.997 207.312 195.586 207.508 195.231 207.731C194.875 207.95 194.595 208.215 194.39 208.524C194.19 208.834 194.089 209.21 194.089 209.652ZM196.557 202.591C195.933 202.591 195.418 202.743 195.012 203.049C194.611 203.354 194.411 203.789 194.411 204.354C194.411 204.733 194.504 205.054 194.691 205.318C194.878 205.583 195.135 205.811 195.463 206.002C195.796 206.189 196.177 206.362 196.605 206.521C197.052 206.339 197.43 206.148 197.74 205.947C198.054 205.747 198.293 205.517 198.457 205.257C198.622 204.997 198.704 204.689 198.704 204.334C198.704 203.76 198.512 203.327 198.129 203.035C197.747 202.739 197.222 202.591 196.557 202.591ZM201.705 211.648C201.705 211.448 201.75 211.295 201.841 211.19C201.932 211.081 202.067 211.026 202.245 211.026C202.441 211.026 202.584 211.081 202.675 211.19C202.766 211.295 202.812 211.448 202.812 211.648C202.812 211.849 202.766 212.004 202.675 212.113C202.584 212.223 202.441 212.277 202.245 212.277C202.067 212.277 201.932 212.223 201.841 212.113C201.75 212.004 201.705 211.849 201.705 211.648ZM207.898 201.996C208.463 201.996 208.957 202.087 209.381 202.27C209.81 202.452 210.142 202.716 210.379 203.062C210.616 203.409 210.735 203.828 210.735 204.32C210.735 204.726 210.641 205.081 210.455 205.387C210.272 205.692 210.019 205.961 209.696 206.193C209.372 206.421 208.996 206.626 208.568 206.809C209.069 207 209.507 207.221 209.88 207.472C210.254 207.722 210.543 208.019 210.748 208.36C210.958 208.702 211.063 209.108 211.063 209.577C211.063 210.142 210.924 210.628 210.646 211.033C210.368 211.434 209.99 211.742 209.511 211.956C209.033 212.166 208.486 212.271 207.871 212.271C207.233 212.271 206.679 212.163 206.209 211.949C205.74 211.735 205.375 211.432 205.116 211.04C204.86 210.644 204.733 210.181 204.733 209.652C204.733 209.16 204.835 208.739 205.04 208.388C205.25 208.032 205.537 207.729 205.902 207.479C206.266 207.228 206.681 207.016 207.146 206.843C206.763 206.674 206.412 206.48 206.093 206.262C205.779 206.043 205.526 205.779 205.334 205.469C205.148 205.154 205.054 204.776 205.054 204.334C205.054 203.846 205.175 203.429 205.416 203.083C205.663 202.737 206 202.47 206.428 202.283C206.857 202.092 207.346 201.996 207.898 201.996ZM205.423 209.652C205.423 210.268 205.64 210.76 206.073 211.129C206.506 211.498 207.1 211.683 207.857 211.683C208.613 211.683 209.222 211.5 209.682 211.136C210.142 210.771 210.372 210.254 210.372 209.584C210.372 209.21 210.284 208.882 210.106 208.6C209.933 208.317 209.678 208.069 209.34 207.854C209.008 207.636 208.602 207.44 208.123 207.267L207.795 207.144C207.331 207.312 206.92 207.508 206.565 207.731C206.209 207.95 205.929 208.215 205.724 208.524C205.524 208.834 205.423 209.21 205.423 209.652ZM207.891 202.591C207.267 202.591 206.752 202.743 206.346 203.049C205.945 203.354 205.745 203.789 205.745 204.354C205.745 204.733 205.838 205.054 206.025 205.318C206.212 205.583 206.469 205.811 206.797 206.002C207.13 206.189 207.511 206.362 207.939 206.521C208.386 206.339 208.764 206.148 209.074 205.947C209.388 205.747 209.627 205.517 209.791 205.257C209.956 204.997 210.038 204.689 210.038 204.334C210.038 203.76 209.846 203.327 209.463 203.035C209.081 202.739 208.556 202.591 207.891 202.591ZM214.659 201.996C215.324 201.996 215.821 202.265 216.149 202.803C216.477 203.34 216.641 204.113 216.641 205.12C216.641 206.15 216.47 206.934 216.128 207.472C215.787 208.005 215.292 208.271 214.645 208.271C214.011 208.271 213.526 208 213.189 207.458C212.856 206.916 212.69 206.136 212.69 205.12C212.69 204.104 212.859 203.329 213.196 202.796C213.538 202.263 214.025 201.996 214.659 201.996ZM214.659 202.543C214.221 202.543 213.886 202.757 213.654 203.186C213.426 203.614 213.312 204.259 213.312 205.12C213.312 205.977 213.424 206.626 213.647 207.068C213.875 207.506 214.207 207.725 214.645 207.725C215.105 207.725 215.449 207.504 215.677 207.062C215.91 206.615 216.026 205.968 216.026 205.12C216.026 204.277 215.916 203.637 215.698 203.199C215.479 202.762 215.133 202.543 214.659 202.543ZM220.667 202.14L215.123 212.134H214.474L220.018 202.14H220.667ZM220.469 206.002C221.125 206.002 221.618 206.271 221.946 206.809C222.278 207.346 222.445 208.119 222.445 209.126C222.445 210.156 222.274 210.938 221.932 211.471C221.59 212.004 221.096 212.271 220.449 212.271C219.815 212.271 219.33 212.002 218.993 211.464C218.66 210.922 218.494 210.142 218.494 209.126C218.494 208.11 218.662 207.335 218.999 206.802C219.341 206.269 219.831 206.002 220.469 206.002ZM220.469 206.549C220.027 206.549 219.69 206.763 219.457 207.191C219.23 207.615 219.116 208.26 219.116 209.126C219.116 209.983 219.227 210.63 219.451 211.067C219.678 211.505 220.011 211.724 220.449 211.724C220.909 211.724 221.253 211.505 221.481 211.067C221.713 210.625 221.83 209.978 221.83 209.126C221.83 208.283 221.72 207.643 221.501 207.205C221.283 206.768 220.939 206.549 220.469 206.549Z" fill="#FBFAFA"/>
</svg>
