<svg width="233" height="233" viewBox="0 0 233 233" fill="none" xmlns="http://www.w3.org/2000/svg">
<path d="M163.962 185.934C147.026 197.551 126.418 202.553 106.04 199.993C85.6633 197.432 66.9327 187.488 53.3968 172.042C39.8609 156.597 32.4597 136.723 32.5952 116.187C32.7307 95.6496 40.3935 75.8756 54.1321 60.6101C67.8707 45.3447 86.7309 35.648 107.14 33.357C127.549 31.0659 148.09 36.3396 164.871 48.179C181.652 60.0184 193.509 77.6013 198.194 97.597C202.88 117.593 200.069 138.612 190.295 156.675L170.091 145.741C177.189 132.624 179.231 117.359 175.828 102.838C172.425 88.3169 163.815 75.5479 151.628 66.95C139.441 58.352 124.524 54.5222 109.703 56.186C94.8813 57.8498 81.1847 64.8916 71.2075 75.9777C61.2304 87.0637 55.6655 101.424 55.5671 116.338C55.4687 131.252 60.8435 145.685 70.6735 156.901C80.5035 168.118 94.106 175.34 108.904 177.199C123.702 179.059 138.669 175.426 150.968 166.99L163.962 185.934Z" fill="#F4AC20"/>
<path d="M190.874 155.584C184.448 167.889 175.068 178.407 163.577 186.196L150.688 167.18C159.033 161.523 165.845 153.885 170.512 144.949L190.874 155.584Z" fill="#E1F1FF"/>
<path d="M17.3574 30.4971L20.2764 25.042H21.0488L17.7197 31.1738V35.0361H17.0156V31.2285L13.6592 25.042H14.4385L17.3574 30.4971ZM25.1025 27.4619C25.736 27.4619 26.2624 27.61 26.6816 27.9062C27.1055 28.2025 27.4199 28.6081 27.625 29.123C27.8346 29.638 27.9395 30.2282 27.9395 30.8936V31.3926H22.5732C22.5732 32.4134 22.8079 33.1973 23.2773 33.7441C23.7513 34.291 24.4281 34.5645 25.3076 34.5645C25.7679 34.5645 26.1667 34.528 26.5039 34.4551C26.8457 34.3776 27.224 34.2477 27.6387 34.0654V34.7012C27.2741 34.8652 26.9095 34.9837 26.5449 35.0566C26.1803 35.1341 25.7611 35.1729 25.2871 35.1729C24.5352 35.1729 23.904 35.0179 23.3936 34.708C22.8877 34.3936 22.5049 33.9515 22.2451 33.3818C21.9899 32.8122 21.8623 32.1468 21.8623 31.3857C21.8623 30.6429 21.9854 29.9753 22.2314 29.3828C22.4821 28.7904 22.8467 28.3232 23.3252 27.9814C23.8083 27.6351 24.4007 27.4619 25.1025 27.4619ZM25.0957 28.0566C24.3848 28.0566 23.8083 28.2936 23.3662 28.7676C22.9287 29.237 22.6712 29.916 22.5938 30.8047H27.2217C27.2217 30.2624 27.1442 29.7839 26.9893 29.3691C26.8343 28.9544 26.5996 28.6331 26.2852 28.4053C25.9753 28.1729 25.5788 28.0566 25.0957 28.0566ZM34.6318 33.0879C34.6318 33.5299 34.5202 33.9082 34.2969 34.2227C34.0781 34.5326 33.7568 34.7695 33.333 34.9336C32.9092 35.0931 32.3874 35.1729 31.7676 35.1729C31.2526 35.1729 30.7923 35.1273 30.3867 35.0361C29.9811 34.945 29.6416 34.8333 29.3682 34.7012V34.0176C29.71 34.1862 30.0882 34.3229 30.5029 34.4277C30.9176 34.5326 31.3438 34.585 31.7812 34.585C32.5469 34.585 33.0983 34.4551 33.4355 34.1953C33.7728 33.9355 33.9414 33.5801 33.9414 33.1289C33.9414 32.8327 33.8571 32.5889 33.6885 32.3975C33.5244 32.2015 33.2874 32.0329 32.9775 31.8916C32.6676 31.7503 32.2939 31.6068 31.8564 31.4609C31.4007 31.306 30.9951 31.1533 30.6396 31.0029C30.2887 30.848 30.013 30.6452 29.8125 30.3945C29.612 30.1393 29.5117 29.793 29.5117 29.3555C29.5117 28.7585 29.751 28.2936 30.2295 27.9609C30.708 27.6283 31.3506 27.4619 32.1572 27.4619C32.6038 27.4619 33.0186 27.5052 33.4014 27.5918C33.7887 27.6738 34.1396 27.7809 34.4541 27.9131L34.208 28.501C33.9255 28.3688 33.5996 28.2617 33.2305 28.1797C32.8613 28.0977 32.4922 28.0566 32.123 28.0566C31.5169 28.0566 31.043 28.1637 30.7012 28.3779C30.3594 28.5921 30.1885 28.9066 30.1885 29.3213C30.1885 29.6403 30.2705 29.891 30.4346 30.0732C30.5986 30.251 30.8333 30.4014 31.1387 30.5244C31.444 30.6429 31.8063 30.7751 32.2256 30.9209C32.6585 31.0713 33.0573 31.2285 33.4219 31.3926C33.791 31.5566 34.085 31.7686 34.3037 32.0283C34.5225 32.2881 34.6318 32.6413 34.6318 33.0879ZM9.29102 41.8984C9.85612 41.8984 10.3506 41.9896 10.7744 42.1719C11.2028 42.3542 11.5355 42.6185 11.7725 42.9648C12.0094 43.3112 12.1279 43.7305 12.1279 44.2227C12.1279 44.6283 12.0345 44.9837 11.8477 45.2891C11.6654 45.5944 11.4124 45.8633 11.0889 46.0957C10.7653 46.3236 10.3893 46.5286 9.96094 46.7109C10.4622 46.9023 10.8997 47.1234 11.2734 47.374C11.6471 47.6247 11.9365 47.9209 12.1416 48.2627C12.3512 48.6045 12.4561 49.0101 12.4561 49.4795C12.4561 50.0446 12.3171 50.5299 12.0391 50.9355C11.7611 51.3366 11.3828 51.6442 10.9043 51.8584C10.4258 52.068 9.87891 52.1729 9.26367 52.1729C8.62565 52.1729 8.07194 52.0658 7.60254 51.8516C7.13314 51.6374 6.76855 51.3343 6.50879 50.9424C6.25358 50.5459 6.12598 50.0833 6.12598 49.5547C6.12598 49.0625 6.22852 48.641 6.43359 48.29C6.64323 47.9346 6.93034 47.6315 7.29492 47.3809C7.65951 47.1302 8.07422 46.9183 8.53906 46.7451C8.15625 46.5765 7.80534 46.3828 7.48633 46.1641C7.17188 45.9453 6.91895 45.681 6.72754 45.3711C6.54069 45.0566 6.44727 44.6784 6.44727 44.2363C6.44727 43.7487 6.56803 43.3317 6.80957 42.9854C7.05566 42.639 7.3929 42.3724 7.82129 42.1855C8.24967 41.9941 8.73958 41.8984 9.29102 41.8984ZM6.81641 49.5547C6.81641 50.1699 7.03288 50.6621 7.46582 51.0312C7.89876 51.4004 8.49349 51.585 9.25 51.585C10.0065 51.585 10.6149 51.4027 11.0752 51.0381C11.5355 50.6735 11.7656 50.1562 11.7656 49.4863C11.7656 49.1126 11.6768 48.7845 11.499 48.502C11.3258 48.2194 11.0706 47.971 10.7334 47.7568C10.4007 47.5381 9.99512 47.3421 9.5166 47.1689L9.18848 47.0459C8.72363 47.2145 8.31348 47.4105 7.95801 47.6338C7.60254 47.8525 7.32227 48.1169 7.11719 48.4268C6.91667 48.7367 6.81641 49.1126 6.81641 49.5547ZM9.28418 42.4932C8.65983 42.4932 8.14486 42.6458 7.73926 42.9512C7.33822 43.2565 7.1377 43.6917 7.1377 44.2568C7.1377 44.6351 7.23112 44.9564 7.41797 45.2207C7.60482 45.485 7.8623 45.7129 8.19043 45.9043C8.52311 46.0911 8.90365 46.2643 9.33203 46.4238C9.77865 46.2415 10.1569 46.0501 10.4668 45.8496C10.7812 45.6491 11.0205 45.4189 11.1846 45.1592C11.3486 44.8994 11.4307 44.5918 11.4307 44.2363C11.4307 43.6621 11.2393 43.2292 10.8564 42.9375C10.4736 42.6413 9.94954 42.4932 9.28418 42.4932ZM17.9727 52.0361H17.2959V44.4893C17.2959 44.2204 17.2959 43.9857 17.2959 43.7852C17.2959 43.5801 17.2982 43.3978 17.3027 43.2383C17.3073 43.0742 17.3141 42.9193 17.3232 42.7734C17.2002 42.8965 17.0817 43.0036 16.9678 43.0947C16.8538 43.1859 16.708 43.3021 16.5303 43.4434L15.0537 44.5645L14.6709 44.0723L17.3916 42.042H17.9727V52.0361ZM23.3457 50.4092L23.4072 50.5732C23.3343 50.915 23.2432 51.2751 23.1338 51.6533C23.029 52.0316 22.9128 52.4076 22.7852 52.7812C22.6621 53.1595 22.5299 53.5127 22.3887 53.8408H21.8555C21.974 53.4261 22.0811 53.0205 22.1768 52.624C22.2725 52.2321 22.3568 51.8516 22.4297 51.4824C22.5026 51.1087 22.5618 50.751 22.6074 50.4092H23.3457ZM31.0225 44.3457C31.0225 44.7878 30.9313 45.1774 30.749 45.5146C30.5667 45.8519 30.3161 46.1276 29.9971 46.3418C29.6826 46.556 29.3203 46.7018 28.9102 46.7793V46.8203C29.694 46.9206 30.2933 47.1781 30.708 47.5928C31.1227 48.0029 31.3301 48.5635 31.3301 49.2744C31.3301 49.835 31.1979 50.334 30.9336 50.7715C30.6693 51.209 30.2705 51.5531 29.7373 51.8037C29.2087 52.0498 28.5433 52.1729 27.7412 52.1729C27.1989 52.1729 26.6953 52.1227 26.2305 52.0225C25.7656 51.9222 25.3418 51.7832 24.959 51.6055V50.9287C25.3372 51.1156 25.7725 51.2705 26.2646 51.3936C26.7614 51.512 27.2559 51.5713 27.748 51.5713C28.7142 51.5713 29.432 51.3639 29.9014 50.9492C30.3708 50.5299 30.6055 49.9694 30.6055 49.2676C30.6055 48.7572 30.4801 48.3493 30.2295 48.0439C29.9788 47.734 29.6257 47.5085 29.1699 47.3672C28.7188 47.2259 28.1878 47.1553 27.5771 47.1553H26.4834V46.5469H27.584C28.099 46.5469 28.5615 46.4671 28.9717 46.3076C29.3818 46.1436 29.7054 45.902 29.9424 45.583C30.1839 45.2594 30.3047 44.8584 30.3047 44.3799C30.3047 43.7601 30.1064 43.293 29.71 42.9785C29.318 42.6641 28.7939 42.5068 28.1377 42.5068C27.7868 42.5068 27.4564 42.5433 27.1465 42.6162C26.8411 42.6891 26.5449 42.7962 26.2578 42.9375C25.9753 43.0742 25.6927 43.2406 25.4102 43.4365L25.0547 42.9375C25.4466 42.6367 25.8978 42.3883 26.4082 42.1924C26.9232 41.9964 27.4974 41.8984 28.1309 41.8984C29.0378 41.8984 29.7464 42.1172 30.2568 42.5547C30.7673 42.9922 31.0225 43.5892 31.0225 44.3457ZM35.0557 41.8984C35.721 41.8984 36.2178 42.1673 36.5459 42.7051C36.874 43.2428 37.0381 44.0153 37.0381 45.0225C37.0381 46.0524 36.8672 46.8363 36.5254 47.374C36.1836 47.9072 35.6891 48.1738 35.042 48.1738C34.4085 48.1738 33.9232 47.9027 33.5859 47.3604C33.2533 46.818 33.0869 46.0387 33.0869 45.0225C33.0869 44.0062 33.2555 43.2314 33.5928 42.6982C33.9346 42.165 34.4222 41.8984 35.0557 41.8984ZM35.0557 42.4453C34.6182 42.4453 34.2832 42.6595 34.0508 43.0879C33.8229 43.5163 33.709 44.1611 33.709 45.0225C33.709 45.8792 33.8206 46.5286 34.0439 46.9707C34.2718 47.4082 34.6045 47.627 35.042 47.627C35.5023 47.627 35.8464 47.4059 36.0742 46.9639C36.3066 46.5173 36.4229 45.8701 36.4229 45.0225C36.4229 44.1794 36.3135 43.5391 36.0947 43.1016C35.876 42.6641 35.5296 42.4453 35.0557 42.4453ZM41.0645 42.042L35.5205 52.0361H34.8711L40.415 42.042H41.0645ZM40.8662 45.9043C41.5225 45.9043 42.0146 46.1732 42.3428 46.7109C42.6755 47.2487 42.8418 48.0212 42.8418 49.0283C42.8418 50.0583 42.6709 50.8398 42.3291 51.373C41.9873 51.9062 41.4928 52.1729 40.8457 52.1729C40.2122 52.1729 39.7269 51.904 39.3896 51.3662C39.057 50.8239 38.8906 50.0446 38.8906 49.0283C38.8906 48.012 39.0592 47.2373 39.3965 46.7041C39.7383 46.1709 40.2282 45.9043 40.8662 45.9043ZM40.8662 46.4512C40.4242 46.4512 40.0869 46.6654 39.8545 47.0938C39.6266 47.5176 39.5127 48.1624 39.5127 49.0283C39.5127 49.8851 39.6243 50.5322 39.8477 50.9697C40.0755 51.4072 40.4082 51.626 40.8457 51.626C41.306 51.626 41.6501 51.4072 41.8779 50.9697C42.1104 50.5277 42.2266 49.8805 42.2266 49.0283C42.2266 48.1852 42.1172 47.5449 41.8984 47.1074C41.6797 46.6699 41.3356 46.4512 40.8662 46.4512Z" fill="#FBFAFA"/>
<path d="M199.234 185.107H198.517L192.61 176.269H192.576C192.585 176.515 192.592 176.765 192.597 177.021C192.606 177.271 192.613 177.531 192.617 177.8C192.626 178.064 192.631 178.338 192.631 178.62V185.107H191.961V175.113H192.686L198.571 183.925H198.605C198.601 183.724 198.594 183.492 198.585 183.228C198.58 182.963 198.574 182.692 198.564 182.414C198.56 182.136 198.558 181.874 198.558 181.628V175.113H199.234V185.107ZM208.053 181.382C208.053 181.956 207.982 182.48 207.841 182.954C207.7 183.424 207.49 183.829 207.212 184.171C206.934 184.513 206.588 184.777 206.173 184.964C205.763 185.151 205.284 185.244 204.737 185.244C204.218 185.244 203.755 185.153 203.35 184.971C202.944 184.784 202.6 184.52 202.317 184.178C202.039 183.836 201.827 183.43 201.682 182.961C201.536 182.487 201.463 181.961 201.463 181.382C201.463 180.584 201.595 179.898 201.859 179.324C202.128 178.745 202.511 178.303 203.008 177.998C203.509 177.688 204.108 177.533 204.806 177.533C205.526 177.533 206.125 177.697 206.604 178.025C207.087 178.349 207.449 178.8 207.69 179.379C207.932 179.958 208.053 180.625 208.053 181.382ZM202.174 181.382C202.174 182.034 202.267 182.603 202.454 183.091C202.641 183.578 202.924 183.959 203.302 184.232C203.685 184.506 204.168 184.643 204.751 184.643C205.348 184.643 205.838 184.506 206.221 184.232C206.604 183.959 206.886 183.576 207.068 183.084C207.251 182.592 207.342 182.024 207.342 181.382C207.342 180.757 207.255 180.201 207.082 179.714C206.909 179.226 206.635 178.843 206.262 178.565C205.888 178.283 205.4 178.142 204.799 178.142C203.938 178.142 203.284 178.429 202.837 179.003C202.395 179.577 202.174 180.37 202.174 181.382ZM185.057 202.107H184.38V194.561C184.38 194.292 184.38 194.057 184.38 193.856C184.38 193.651 184.382 193.469 184.387 193.31C184.391 193.146 184.398 192.991 184.407 192.845C184.284 192.968 184.166 193.075 184.052 193.166C183.938 193.257 183.792 193.373 183.614 193.515L182.138 194.636L181.755 194.144L184.476 192.113H185.057V202.107ZM192.371 191.97C192.936 191.97 193.431 192.061 193.854 192.243C194.283 192.425 194.616 192.69 194.853 193.036C195.09 193.382 195.208 193.802 195.208 194.294C195.208 194.7 195.115 195.055 194.928 195.36C194.745 195.666 194.493 195.935 194.169 196.167C193.845 196.395 193.469 196.6 193.041 196.782C193.542 196.974 193.98 197.195 194.354 197.445C194.727 197.696 195.017 197.992 195.222 198.334C195.431 198.676 195.536 199.081 195.536 199.551C195.536 200.116 195.397 200.601 195.119 201.007C194.841 201.408 194.463 201.715 193.984 201.93C193.506 202.139 192.959 202.244 192.344 202.244C191.706 202.244 191.152 202.137 190.683 201.923C190.213 201.709 189.849 201.406 189.589 201.014C189.334 200.617 189.206 200.155 189.206 199.626C189.206 199.134 189.309 198.712 189.514 198.361C189.723 198.006 190.01 197.703 190.375 197.452C190.74 197.201 191.154 196.99 191.619 196.816C191.236 196.648 190.885 196.454 190.566 196.235C190.252 196.017 189.999 195.752 189.808 195.442C189.621 195.128 189.527 194.75 189.527 194.308C189.527 193.82 189.648 193.403 189.89 193.057C190.136 192.71 190.473 192.444 190.901 192.257C191.33 192.065 191.82 191.97 192.371 191.97ZM189.896 199.626C189.896 200.241 190.113 200.733 190.546 201.103C190.979 201.472 191.574 201.656 192.33 201.656C193.087 201.656 193.695 201.474 194.155 201.109C194.616 200.745 194.846 200.228 194.846 199.558C194.846 199.184 194.757 198.856 194.579 198.573C194.406 198.291 194.151 198.042 193.813 197.828C193.481 197.609 193.075 197.413 192.597 197.24L192.269 197.117C191.804 197.286 191.394 197.482 191.038 197.705C190.683 197.924 190.402 198.188 190.197 198.498C189.997 198.808 189.896 199.184 189.896 199.626ZM192.364 192.564C191.74 192.564 191.225 192.717 190.819 193.022C190.418 193.328 190.218 193.763 190.218 194.328C190.218 194.706 190.311 195.028 190.498 195.292C190.685 195.556 190.942 195.784 191.271 195.976C191.603 196.162 191.984 196.336 192.412 196.495C192.859 196.313 193.237 196.121 193.547 195.921C193.861 195.72 194.101 195.49 194.265 195.23C194.429 194.971 194.511 194.663 194.511 194.308C194.511 193.733 194.319 193.3 193.937 193.009C193.554 192.713 193.03 192.564 192.364 192.564ZM197.512 201.622C197.512 201.422 197.557 201.269 197.648 201.164C197.74 201.055 197.874 201 198.052 201C198.248 201 198.391 201.055 198.482 201.164C198.574 201.269 198.619 201.422 198.619 201.622C198.619 201.823 198.574 201.978 198.482 202.087C198.391 202.196 198.248 202.251 198.052 202.251C197.874 202.251 197.74 202.196 197.648 202.087C197.557 201.978 197.512 201.823 197.512 201.622ZM203.705 191.97C204.27 191.97 204.765 192.061 205.188 192.243C205.617 192.425 205.95 192.69 206.187 193.036C206.424 193.382 206.542 193.802 206.542 194.294C206.542 194.7 206.449 195.055 206.262 195.36C206.079 195.666 205.826 195.935 205.503 196.167C205.179 196.395 204.803 196.6 204.375 196.782C204.876 196.974 205.314 197.195 205.688 197.445C206.061 197.696 206.351 197.992 206.556 198.334C206.765 198.676 206.87 199.081 206.87 199.551C206.87 200.116 206.731 200.601 206.453 201.007C206.175 201.408 205.797 201.715 205.318 201.93C204.84 202.139 204.293 202.244 203.678 202.244C203.04 202.244 202.486 202.137 202.017 201.923C201.547 201.709 201.183 201.406 200.923 201.014C200.668 200.617 200.54 200.155 200.54 199.626C200.54 199.134 200.643 198.712 200.848 198.361C201.057 198.006 201.344 197.703 201.709 197.452C202.074 197.201 202.488 196.99 202.953 196.816C202.57 196.648 202.219 196.454 201.9 196.235C201.586 196.017 201.333 195.752 201.142 195.442C200.955 195.128 200.861 194.75 200.861 194.308C200.861 193.82 200.982 193.403 201.224 193.057C201.47 192.71 201.807 192.444 202.235 192.257C202.664 192.065 203.154 191.97 203.705 191.97ZM201.23 199.626C201.23 200.241 201.447 200.733 201.88 201.103C202.313 201.472 202.908 201.656 203.664 201.656C204.421 201.656 205.029 201.474 205.489 201.109C205.95 200.745 206.18 200.228 206.18 199.558C206.18 199.184 206.091 198.856 205.913 198.573C205.74 198.291 205.485 198.042 205.147 197.828C204.815 197.609 204.409 197.413 203.931 197.24L203.603 197.117C203.138 197.286 202.728 197.482 202.372 197.705C202.017 197.924 201.736 198.188 201.531 198.498C201.331 198.808 201.23 199.184 201.23 199.626ZM203.698 192.564C203.074 192.564 202.559 192.717 202.153 193.022C201.752 193.328 201.552 193.763 201.552 194.328C201.552 194.706 201.645 195.028 201.832 195.292C202.019 195.556 202.276 195.784 202.604 195.976C202.937 196.162 203.318 196.336 203.746 196.495C204.193 196.313 204.571 196.121 204.881 195.921C205.195 195.72 205.435 195.49 205.599 195.23C205.763 194.971 205.845 194.663 205.845 194.308C205.845 193.733 205.653 193.3 205.271 193.009C204.888 192.713 204.364 192.564 203.698 192.564ZM210.466 191.97C211.131 191.97 211.628 192.239 211.956 192.776C212.284 193.314 212.448 194.087 212.448 195.094C212.448 196.124 212.277 196.908 211.936 197.445C211.594 197.979 211.099 198.245 210.452 198.245C209.819 198.245 209.333 197.974 208.996 197.432C208.663 196.889 208.497 196.11 208.497 195.094C208.497 194.077 208.666 193.303 209.003 192.77C209.345 192.236 209.832 191.97 210.466 191.97ZM210.466 192.517C210.028 192.517 209.693 192.731 209.461 193.159C209.233 193.588 209.119 194.232 209.119 195.094C209.119 195.951 209.231 196.6 209.454 197.042C209.682 197.479 210.015 197.698 210.452 197.698C210.912 197.698 211.257 197.477 211.484 197.035C211.717 196.589 211.833 195.941 211.833 195.094C211.833 194.251 211.724 193.61 211.505 193.173C211.286 192.735 210.94 192.517 210.466 192.517ZM216.475 192.113L210.931 202.107H210.281L215.825 192.113H216.475ZM216.276 195.976C216.933 195.976 217.425 196.244 217.753 196.782C218.086 197.32 218.252 198.092 218.252 199.1C218.252 200.13 218.081 200.911 217.739 201.444C217.397 201.978 216.903 202.244 216.256 202.244C215.622 202.244 215.137 201.975 214.8 201.438C214.467 200.895 214.301 200.116 214.301 199.1C214.301 198.083 214.469 197.309 214.807 196.775C215.148 196.242 215.638 195.976 216.276 195.976ZM216.276 196.522C215.834 196.522 215.497 196.737 215.265 197.165C215.037 197.589 214.923 198.234 214.923 199.1C214.923 199.956 215.035 200.604 215.258 201.041C215.486 201.479 215.818 201.697 216.256 201.697C216.716 201.697 217.06 201.479 217.288 201.041C217.521 200.599 217.637 199.952 217.637 199.1C217.637 198.257 217.527 197.616 217.309 197.179C217.09 196.741 216.746 196.522 216.276 196.522Z" fill="#FBFAFA"/>
</svg>
