<svg width="233" height="233" viewBox="0 0 233 233" fill="none" xmlns="http://www.w3.org/2000/svg">
<path d="M163.963 185.935C149.523 195.839 132.347 200.978 114.841 200.632C97.3348 200.285 80.3755 194.471 66.3393 184.003C52.3031 173.536 41.8932 158.939 36.5681 142.259C31.2431 125.579 31.2697 107.651 36.6442 90.9861C42.0188 74.3217 52.472 59.7562 66.5392 49.3303C80.6065 38.9044 97.583 33.1404 115.09 32.8461C132.597 32.5517 149.758 37.7417 164.168 47.6888C178.578 57.6359 189.515 71.8418 195.446 88.3161L173.832 96.0984C169.525 84.1345 161.582 73.818 151.117 66.5942C140.653 59.3705 128.19 55.6014 115.476 55.8152C102.762 56.029 90.4338 60.2148 80.2179 67.7863C70.002 75.3578 62.4107 85.9355 58.5077 98.0374C54.6046 110.139 54.5852 123.159 58.4524 135.273C62.3195 147.386 69.8793 157.986 80.0727 165.588C90.266 173.19 102.582 177.412 115.295 177.664C128.009 177.915 140.482 174.183 150.968 166.991L163.963 185.935Z" fill="#F4AC20"/>
<path d="M195.392 88.1686C202.04 106.524 202.079 126.623 195.503 145.005C188.927 163.386 176.147 178.9 159.365 188.873L147.629 169.124C159.817 161.882 169.098 150.616 173.873 137.267C178.649 123.918 178.621 109.321 173.793 95.9912L195.392 88.1686Z" fill="#E1F1FF"/>
<path d="M22.572 30.4971L25.491 25.042H26.2634L22.9343 31.1738V35.0361H22.2302V31.2285L18.8738 25.042H19.6531L22.572 30.4971ZM30.3171 27.4619C30.9506 27.4619 31.477 27.61 31.8962 27.9062C32.3201 28.2025 32.6345 28.6081 32.8396 29.123C33.0492 29.638 33.1541 30.2282 33.1541 30.8936V31.3926H27.7878C27.7878 32.4134 28.0225 33.1973 28.4919 33.7441C28.9659 34.291 29.6427 34.5645 30.5222 34.5645C30.9825 34.5645 31.3813 34.528 31.7185 34.4551C32.0603 34.3776 32.4386 34.2477 32.8533 34.0654V34.7012C32.4887 34.8652 32.1241 34.9837 31.7595 35.0566C31.3949 35.1341 30.9757 35.1729 30.5017 35.1729C29.7498 35.1729 29.1186 35.0179 28.6082 34.708C28.1023 34.3936 27.7195 33.9515 27.4597 33.3818C27.2045 32.8122 27.0769 32.1468 27.0769 31.3857C27.0769 30.6429 27.2 29.9753 27.446 29.3828C27.6967 28.7904 28.0613 28.3232 28.5398 27.9814C29.0229 27.6351 29.6153 27.4619 30.3171 27.4619ZM30.3103 28.0566C29.5994 28.0566 29.0229 28.2936 28.5808 28.7676C28.1433 29.237 27.8858 29.916 27.8083 30.8047H32.4363C32.4363 30.2624 32.3588 29.7839 32.2039 29.3691C32.0489 28.9544 31.8142 28.6331 31.4998 28.4053C31.1899 28.1729 30.7934 28.0566 30.3103 28.0566ZM39.8464 33.0879C39.8464 33.5299 39.7348 33.9082 39.5115 34.2227C39.2927 34.5326 38.9714 34.7695 38.5476 34.9336C38.1238 35.0931 37.602 35.1729 36.9822 35.1729C36.4672 35.1729 36.0069 35.1273 35.6013 35.0361C35.1957 34.945 34.8562 34.8333 34.5828 34.7012V34.0176C34.9246 34.1862 35.3028 34.3229 35.7175 34.4277C36.1322 34.5326 36.5583 34.585 36.9958 34.585C37.7615 34.585 38.3129 34.4551 38.6501 34.1953C38.9874 33.9355 39.156 33.5801 39.156 33.1289C39.156 32.8327 39.0717 32.5889 38.9031 32.3975C38.739 32.2015 38.502 32.0329 38.1921 31.8916C37.8822 31.7503 37.5085 31.6068 37.071 31.4609C36.6153 31.306 36.2097 31.1533 35.8542 31.0029C35.5033 30.848 35.2276 30.6452 35.0271 30.3945C34.8266 30.1393 34.7263 29.793 34.7263 29.3555C34.7263 28.7585 34.9656 28.2936 35.4441 27.9609C35.9226 27.6283 36.5652 27.4619 37.3718 27.4619C37.8184 27.4619 38.2332 27.5052 38.616 27.5918C39.0033 27.6738 39.3542 27.7809 39.6687 27.9131L39.4226 28.501C39.1401 28.3688 38.8142 28.2617 38.4451 28.1797C38.0759 28.0977 37.7068 28.0566 37.3376 28.0566C36.7315 28.0566 36.2576 28.1637 35.9158 28.3779C35.574 28.5921 35.4031 28.9066 35.4031 29.3213C35.4031 29.6403 35.4851 29.891 35.6492 30.0732C35.8132 30.251 36.0479 30.4014 36.3533 30.5244C36.6586 30.6429 37.0209 30.7751 37.4402 30.9209C37.8731 31.0713 38.2719 31.2285 38.6365 31.3926C39.0056 31.5566 39.2996 31.7686 39.5183 32.0283C39.7371 32.2881 39.8464 32.6413 39.8464 33.0879ZM11.2449 47.7773C11.2449 47.0299 11.3018 46.3486 11.4158 45.7334C11.5343 45.1136 11.7074 44.5667 11.9353 44.0928C12.1632 43.6143 12.4503 43.2109 12.7966 42.8828C13.143 42.5547 13.5486 42.3063 14.0134 42.1377C14.4783 41.9691 15.0001 41.8848 15.5789 41.8848C15.8295 41.8848 16.0688 41.8984 16.2966 41.9258C16.5245 41.9531 16.725 41.9919 16.8982 42.042V42.6709C16.7296 42.6117 16.5336 42.5661 16.3103 42.5342C16.087 42.4977 15.8477 42.4795 15.5925 42.4795C14.8087 42.4795 14.1501 42.6618 13.6169 43.0264C13.0837 43.3864 12.6759 43.9264 12.3933 44.6465C12.1153 45.362 11.9604 46.2507 11.9285 47.3125H11.9763C12.1085 47.0664 12.2931 46.8317 12.53 46.6084C12.7716 46.3851 13.0701 46.2028 13.4255 46.0615C13.7856 45.9202 14.2094 45.8496 14.697 45.8496C15.2986 45.8496 15.8158 45.9704 16.2488 46.2119C16.6863 46.4535 17.0212 46.7998 17.2537 47.251C17.4906 47.7021 17.6091 48.2376 17.6091 48.8574C17.6091 49.5228 17.4861 50.1038 17.24 50.6006C16.9985 51.0973 16.6475 51.4847 16.1873 51.7627C15.7315 52.0361 15.1824 52.1729 14.5398 52.1729C13.9929 52.1729 13.5144 52.0612 13.1042 51.8379C12.6941 51.6146 12.35 51.3024 12.072 50.9014C11.7986 50.5003 11.5912 50.0355 11.45 49.5068C11.3132 48.9736 11.2449 48.3971 11.2449 47.7773ZM14.533 51.5713C15.2849 51.5713 15.8682 51.3366 16.283 50.8672C16.7022 50.3932 16.9119 49.7233 16.9119 48.8574C16.9119 48.11 16.7205 47.5199 16.3376 47.0869C15.9548 46.6494 15.3761 46.4307 14.6013 46.4307C14.0636 46.4307 13.5987 46.5378 13.2068 46.752C12.8194 46.9661 12.5209 47.2327 12.3113 47.5518C12.1016 47.8662 11.9968 48.1761 11.9968 48.4814C11.9968 48.7686 12.0378 49.0876 12.1199 49.4385C12.2019 49.7894 12.3409 50.1289 12.5369 50.457C12.7328 50.7806 12.9926 51.0472 13.3162 51.2568C13.6443 51.4665 14.0499 51.5713 14.533 51.5713ZM25.3884 52.0361H19.1335V51.4482L22.073 48.3857C22.5424 47.8981 22.9366 47.4583 23.2556 47.0664C23.5792 46.6699 23.823 46.2734 23.9871 45.877C24.1557 45.4805 24.24 45.0361 24.24 44.5439C24.24 43.9014 24.0509 43.4023 23.6726 43.0469C23.2989 42.6914 22.7908 42.5137 22.1482 42.5137C21.7153 42.5137 21.2983 42.5911 20.8972 42.7461C20.5007 42.901 20.1134 43.1289 19.7351 43.4297L19.3523 42.9443C19.6303 42.7165 19.922 42.5251 20.2273 42.3701C20.5372 42.2152 20.8539 42.099 21.1775 42.0215C21.5011 41.9395 21.8246 41.8984 22.1482 41.8984C22.7179 41.8984 23.21 42.0078 23.6248 42.2266C24.044 42.4408 24.3699 42.7438 24.6023 43.1357C24.8347 43.5277 24.9509 43.988 24.9509 44.5166C24.9509 45.0635 24.8552 45.5602 24.6638 46.0068C24.477 46.4489 24.2104 46.8818 23.864 47.3057C23.5177 47.7295 23.1075 48.1852 22.6335 48.6729L20.0291 51.3662V51.3936H25.3884V52.0361ZM27.4802 51.5508C27.4802 51.3503 27.5258 51.1976 27.6169 51.0928C27.7081 50.9834 27.8425 50.9287 28.0203 50.9287C28.2162 50.9287 28.3598 50.9834 28.4509 51.0928C28.5421 51.1976 28.5876 51.3503 28.5876 51.5508C28.5876 51.7513 28.5421 51.9062 28.4509 52.0156C28.3598 52.125 28.2162 52.1797 28.0203 52.1797C27.8425 52.1797 27.7081 52.125 27.6169 52.0156C27.5258 51.9062 27.4802 51.7513 27.4802 51.5508ZM33.5369 46.0137C34.2113 46.0137 34.7924 46.1276 35.28 46.3555C35.7722 46.5833 36.1505 46.916 36.4148 47.3535C36.6837 47.7865 36.8181 48.3174 36.8181 48.9463C36.8181 49.6117 36.67 50.1859 36.3738 50.6689C36.0776 51.152 35.6583 51.5234 35.116 51.7832C34.5782 52.043 33.9425 52.1729 33.2087 52.1729C32.6801 52.1729 32.1993 52.1227 31.7664 52.0225C31.338 51.9176 30.9757 51.7786 30.6794 51.6055V50.9082C30.9985 51.0996 31.379 51.2568 31.821 51.3799C32.2677 51.5029 32.7325 51.5645 33.2156 51.5645C33.7989 51.5645 34.307 51.4665 34.74 51.2705C35.1729 51.07 35.5079 50.7783 35.7449 50.3955C35.9864 50.0127 36.1072 49.5433 36.1072 48.9873C36.1072 48.2445 35.8816 47.6657 35.4304 47.251C34.9792 46.8317 34.2979 46.6221 33.3865 46.6221C33.0128 46.6221 32.655 46.6494 32.3132 46.7041C31.976 46.7542 31.6615 46.818 31.3699 46.8955L30.9734 46.6152L31.3767 42.042H36.1755V42.6846H31.9714L31.6638 46.2461C31.8689 46.196 32.1264 46.1458 32.4363 46.0957C32.7507 46.041 33.1176 46.0137 33.5369 46.0137ZM40.4343 41.8984C41.0997 41.8984 41.5964 42.1673 41.9246 42.7051C42.2527 43.2428 42.4167 44.0153 42.4167 45.0225C42.4167 46.0524 42.2458 46.8363 41.9041 47.374C41.5623 47.9072 41.0678 48.1738 40.4207 48.1738C39.7872 48.1738 39.3018 47.9027 38.9646 47.3604C38.6319 46.818 38.4656 46.0387 38.4656 45.0225C38.4656 44.0062 38.6342 43.2314 38.9714 42.6982C39.3132 42.165 39.8009 41.8984 40.4343 41.8984ZM40.4343 42.4453C39.9968 42.4453 39.6619 42.6595 39.4294 43.0879C39.2016 43.5163 39.0876 44.1611 39.0876 45.0225C39.0876 45.8792 39.1993 46.5286 39.4226 46.9707C39.6505 47.4082 39.9832 47.627 40.4207 47.627C40.8809 47.627 41.225 47.4059 41.4529 46.9639C41.6853 46.5173 41.8015 45.8701 41.8015 45.0225C41.8015 44.1794 41.6921 43.5391 41.4734 43.1016C41.2546 42.6641 40.9083 42.4453 40.4343 42.4453ZM46.4431 42.042L40.8992 52.0361H40.2498L45.7937 42.042H46.4431ZM46.2449 45.9043C46.9011 45.9043 47.3933 46.1732 47.7214 46.7109C48.0541 47.2487 48.2205 48.0212 48.2205 49.0283C48.2205 50.0583 48.0496 50.8398 47.7078 51.373C47.366 51.9062 46.8715 52.1729 46.2244 52.1729C45.5909 52.1729 45.1056 51.904 44.7683 51.3662C44.4356 50.8239 44.2693 50.0446 44.2693 49.0283C44.2693 48.012 44.4379 47.2373 44.7751 46.7041C45.1169 46.1709 45.6069 45.9043 46.2449 45.9043ZM46.2449 46.4512C45.8028 46.4512 45.4656 46.6654 45.2332 47.0938C45.0053 47.5176 44.8914 48.1624 44.8914 49.0283C44.8914 49.8851 45.003 50.5322 45.2263 50.9697C45.4542 51.4072 45.7869 51.626 46.2244 51.626C46.6847 51.626 47.0287 51.4072 47.2566 50.9697C47.489 50.5277 47.6052 49.8805 47.6052 49.0283C47.6052 48.1852 47.4958 47.5449 47.2771 47.1074C47.0583 46.6699 46.7143 46.4512 46.2449 46.4512Z" fill="#FBFAFA"/>
<path d="M199.234 185.107H198.517L192.61 176.269H192.576C192.585 176.515 192.592 176.765 192.597 177.021C192.606 177.271 192.613 177.531 192.617 177.8C192.626 178.064 192.631 178.338 192.631 178.62V185.107H191.961V175.113H192.686L198.571 183.925H198.605C198.601 183.724 198.594 183.492 198.585 183.228C198.58 182.963 198.574 182.692 198.564 182.414C198.56 182.136 198.558 181.874 198.558 181.628V175.113H199.234V185.107ZM208.053 181.382C208.053 181.956 207.982 182.48 207.841 182.954C207.7 183.424 207.49 183.829 207.212 184.171C206.934 184.513 206.588 184.777 206.173 184.964C205.763 185.151 205.284 185.244 204.737 185.244C204.218 185.244 203.755 185.153 203.35 184.971C202.944 184.784 202.6 184.52 202.317 184.178C202.039 183.836 201.827 183.43 201.682 182.961C201.536 182.487 201.463 181.961 201.463 181.382C201.463 180.584 201.595 179.898 201.859 179.324C202.128 178.745 202.511 178.303 203.008 177.998C203.509 177.688 204.108 177.533 204.806 177.533C205.526 177.533 206.125 177.697 206.604 178.025C207.087 178.349 207.449 178.8 207.69 179.379C207.932 179.958 208.053 180.625 208.053 181.382ZM202.174 181.382C202.174 182.034 202.267 182.603 202.454 183.091C202.641 183.578 202.924 183.959 203.302 184.232C203.685 184.506 204.168 184.643 204.751 184.643C205.348 184.643 205.838 184.506 206.221 184.232C206.604 183.959 206.886 183.576 207.068 183.084C207.251 182.592 207.342 182.024 207.342 181.382C207.342 180.757 207.255 180.201 207.082 179.714C206.909 179.226 206.635 178.843 206.262 178.565C205.888 178.283 205.4 178.142 204.799 178.142C203.938 178.142 203.284 178.429 202.837 179.003C202.395 179.577 202.174 180.37 202.174 181.382ZM187.101 194.417C187.101 194.859 187.009 195.249 186.827 195.586C186.645 195.923 186.394 196.199 186.075 196.413C185.761 196.627 185.398 196.773 184.988 196.851V196.892C185.772 196.992 186.371 197.249 186.786 197.664C187.201 198.074 187.408 198.635 187.408 199.346C187.408 199.906 187.276 200.405 187.012 200.843C186.747 201.28 186.349 201.624 185.815 201.875C185.287 202.121 184.621 202.244 183.819 202.244C183.277 202.244 182.773 202.194 182.309 202.094C181.844 201.993 181.42 201.854 181.037 201.677V201C181.415 201.187 181.851 201.342 182.343 201.465C182.84 201.583 183.334 201.643 183.826 201.643C184.792 201.643 185.51 201.435 185.979 201.021C186.449 200.601 186.684 200.041 186.684 199.339C186.684 198.828 186.558 198.421 186.308 198.115C186.057 197.805 185.704 197.58 185.248 197.438C184.797 197.297 184.266 197.227 183.655 197.227H182.562V196.618H183.662C184.177 196.618 184.64 196.538 185.05 196.379C185.46 196.215 185.784 195.973 186.021 195.654C186.262 195.331 186.383 194.93 186.383 194.451C186.383 193.831 186.185 193.364 185.788 193.05C185.396 192.735 184.872 192.578 184.216 192.578C183.865 192.578 183.535 192.615 183.225 192.688C182.919 192.76 182.623 192.868 182.336 193.009C182.053 193.146 181.771 193.312 181.488 193.508L181.133 193.009C181.525 192.708 181.976 192.46 182.486 192.264C183.001 192.068 183.576 191.97 184.209 191.97C185.116 191.97 185.825 192.188 186.335 192.626C186.845 193.063 187.101 193.66 187.101 194.417ZM190.71 202.107L194.846 192.756H189.131V192.113H195.598V192.619L191.469 202.107H190.71ZM197.512 201.622C197.512 201.422 197.557 201.269 197.648 201.164C197.74 201.055 197.874 201 198.052 201C198.248 201 198.391 201.055 198.482 201.164C198.574 201.269 198.619 201.422 198.619 201.622C198.619 201.823 198.574 201.978 198.482 202.087C198.391 202.196 198.248 202.251 198.052 202.251C197.874 202.251 197.74 202.196 197.648 202.087C197.557 201.978 197.512 201.823 197.512 201.622ZM203.568 196.085C204.243 196.085 204.824 196.199 205.312 196.427C205.804 196.655 206.182 196.987 206.446 197.425C206.715 197.858 206.85 198.389 206.85 199.018C206.85 199.683 206.701 200.257 206.405 200.74C206.109 201.223 205.69 201.595 205.147 201.854C204.61 202.114 203.974 202.244 203.24 202.244C202.712 202.244 202.231 202.194 201.798 202.094C201.369 201.989 201.007 201.85 200.711 201.677V200.979C201.03 201.171 201.41 201.328 201.853 201.451C202.299 201.574 202.764 201.636 203.247 201.636C203.83 201.636 204.339 201.538 204.771 201.342C205.204 201.141 205.539 200.85 205.776 200.467C206.018 200.084 206.139 199.615 206.139 199.059C206.139 198.316 205.913 197.737 205.462 197.322C205.011 196.903 204.329 196.693 203.418 196.693C203.044 196.693 202.687 196.721 202.345 196.775C202.007 196.826 201.693 196.889 201.401 196.967L201.005 196.687L201.408 192.113H206.207V192.756H202.003L201.695 196.317C201.9 196.267 202.158 196.217 202.468 196.167C202.782 196.112 203.149 196.085 203.568 196.085ZM210.466 191.97C211.131 191.97 211.628 192.239 211.956 192.776C212.284 193.314 212.448 194.087 212.448 195.094C212.448 196.124 212.277 196.908 211.936 197.445C211.594 197.979 211.099 198.245 210.452 198.245C209.819 198.245 209.333 197.974 208.996 197.432C208.663 196.889 208.497 196.11 208.497 195.094C208.497 194.077 208.666 193.303 209.003 192.77C209.345 192.236 209.832 191.97 210.466 191.97ZM210.466 192.517C210.028 192.517 209.693 192.731 209.461 193.159C209.233 193.588 209.119 194.232 209.119 195.094C209.119 195.951 209.231 196.6 209.454 197.042C209.682 197.479 210.015 197.698 210.452 197.698C210.912 197.698 211.257 197.477 211.484 197.035C211.717 196.589 211.833 195.941 211.833 195.094C211.833 194.251 211.724 193.61 211.505 193.173C211.286 192.735 210.94 192.517 210.466 192.517ZM216.475 192.113L210.931 202.107H210.281L215.825 192.113H216.475ZM216.276 195.976C216.933 195.976 217.425 196.244 217.753 196.782C218.086 197.32 218.252 198.092 218.252 199.1C218.252 200.13 218.081 200.911 217.739 201.444C217.397 201.978 216.903 202.244 216.256 202.244C215.622 202.244 215.137 201.975 214.8 201.438C214.467 200.895 214.301 200.116 214.301 199.1C214.301 198.083 214.469 197.309 214.807 196.775C215.148 196.242 215.638 195.976 216.276 195.976ZM216.276 196.522C215.834 196.522 215.497 196.737 215.265 197.165C215.037 197.589 214.923 198.234 214.923 199.1C214.923 199.956 215.035 200.604 215.258 201.041C215.486 201.479 215.818 201.697 216.256 201.697C216.716 201.697 217.06 201.479 217.288 201.041C217.521 200.599 217.637 199.952 217.637 199.1C217.637 198.257 217.527 197.616 217.309 197.179C217.09 196.741 216.746 196.522 216.276 196.522Z" fill="#FBFAFA"/>
</svg>
