<svg width="24" height="24" viewBox="0 0 24 24" fill="none" xmlns="http://www.w3.org/2000/svg">
<path d="M7.10763 4C7.82626 4 8.48223 4.064 9.07553 4.19066C9.66884 4.31732 10.1755 4.52531 10.5981 4.81463C11.0208 5.10394 11.3487 5.48792 11.5821 5.9679C11.8154 6.44787 11.9314 7.03984 11.9314 7.74514C11.9314 8.50643 11.7581 9.14107 11.4127 9.64904C11.0674 10.157 10.5555 10.573 9.87949 10.897C10.8101 11.165 11.5047 11.6343 11.9634 12.3036C12.422 12.9729 12.6513 13.7808 12.6513 14.7261C12.6513 15.4874 12.5034 16.1474 12.2074 16.7047C11.9114 17.262 11.5127 17.7166 11.0114 18.0686C10.5101 18.4219 9.93949 18.6819 9.29819 18.8512C8.65289 19.0206 7.98759 19.1059 7.32096 19.1046H0V4H7.10763ZM6.68499 10.113C7.27696 10.113 7.7636 9.97169 8.14491 9.69037C8.52623 9.40772 8.71689 8.95041 8.71555 8.31578C8.71555 7.9638 8.65156 7.67448 8.52489 7.44916C8.39823 7.22383 8.22891 7.04651 8.01692 6.91985C7.80493 6.79319 7.56228 6.70519 7.28762 6.65586C7.00497 6.60653 6.71832 6.5812 6.43034 6.58253H3.3225V10.1157L6.68499 10.113ZM6.87565 16.522C7.18896 16.5234 7.50095 16.4914 7.80627 16.4274C8.10225 16.3634 8.36357 16.258 8.58889 16.11C8.81421 15.9621 8.9942 15.7607 9.12886 15.5074C9.26219 15.2541 9.33019 14.9288 9.33019 14.5341C9.33019 13.7595 9.11153 13.2049 8.67422 12.8742C8.23691 12.5422 7.65827 12.3769 6.93964 12.3769H3.3225V16.5234L6.87565 16.522ZM16.8298 16.2047C17.2804 16.642 17.9297 16.8607 18.7764 16.8607C19.383 16.8607 19.9043 16.7087 20.3416 16.406C20.7789 16.1034 21.0469 15.7821 21.1456 15.4434H23.7894C23.3668 16.7553 22.7175 17.6926 21.8429 18.2566C20.9683 18.8206 19.911 19.1032 18.6697 19.1032C17.8098 19.1032 17.0338 18.9659 16.3432 18.6912C15.6525 18.4166 15.0672 18.0246 14.5872 17.5166C14.1073 17.0087 13.7366 16.4034 13.4766 15.6981C13.2167 14.9928 13.086 14.2168 13.086 13.3715C13.086 12.5542 13.2193 11.7929 13.4873 11.0876C13.7553 10.3823 14.1366 9.77304 14.6299 9.2584C15.1232 8.74376 15.7125 8.33844 16.3965 8.04246C17.0805 7.74647 17.8391 7.59848 18.671 7.59848C19.6017 7.59848 20.4123 7.77847 21.1042 8.13845C21.7949 8.49844 22.3629 8.98108 22.8068 9.58771C23.2508 10.1943 23.5721 10.885 23.7694 11.6609C23.9668 12.4369 24.0374 13.2475 23.9814 14.0941H16.0912C16.1325 15.0634 16.3792 15.7687 16.8298 16.2047ZM20.2256 10.4517C19.8656 10.057 19.319 9.8597 18.5857 9.8597C18.1057 9.8597 17.7071 9.94103 17.3911 10.1024C17.0738 10.265 16.8205 10.465 16.6298 10.705C16.4392 10.945 16.3058 11.1983 16.2285 11.4663C16.1512 11.7343 16.1045 11.9743 16.0912 12.1849H20.9776C20.8349 11.425 20.5843 10.8463 20.2256 10.4517ZM15.5765 4.76663H21.6816V6.45987H15.5765V4.76663Z" fill="#E0DFDE"/>
</svg>
