<svg width="18" height="17" viewBox="0 0 18 17" fill="none" xmlns="http://www.w3.org/2000/svg">
<path fill-rule="evenodd" clip-rule="evenodd" d="M4.03794 17.0002V5.52978H0.225377V17.0002H4.03794ZM2.13164 3.96368C3.46116 3.96368 4.28868 3.08288 4.28868 1.98213C4.2639 0.856603 3.46117 0.000240326 2.15687 0.000240326C0.852701 0.000240326 0 0.856603 0 1.98213C0 3.08288 0.827338 3.96368 2.10679 3.96368H2.13164ZM6.14754 17.0002H9.96007V10.5946C9.96007 10.2518 9.98485 9.90935 10.0855 9.66429C10.3611 8.97933 10.9885 8.26994 12.0417 8.26994C13.4213 8.26994 13.9731 9.32181 13.9731 10.8638V17.0002H17.7854V10.4232C17.7854 6.90003 15.9045 5.26062 13.3961 5.26062C11.3393 5.26062 10.4364 6.41024 9.93471 7.19329H9.96017V5.52978H6.14764C6.19767 6.60609 6.14754 17.0002 6.14754 17.0002Z" fill="#E0DFDE"/>
</svg>
