<svg width="32" height="32" viewBox="0 0 32 32" fill="none" xmlns="http://www.w3.org/2000/svg">
<path fill-rule="evenodd" clip-rule="evenodd" d="M9.78378 26.14V12.5509H5.26701V26.14H9.78378ZM7.52537 10.6955C9.10046 10.6955 10.0808 9.65202 10.0808 8.34796C10.0515 7.01454 9.10046 6 7.55525 6C6.0102 6 5 7.01454 5 8.34796C5 9.65202 5.98015 10.6955 7.49593 10.6955H7.52537ZM12.283 26.14H16.7997V18.5513C16.7997 18.1451 16.8291 17.7394 16.9483 17.4491C17.2749 16.6376 18.0181 15.7972 19.2658 15.7972C20.9002 15.7972 21.554 17.0433 21.554 18.8701V26.14H26.0704V18.3482C26.0704 14.1742 23.8421 12.232 20.8704 12.232C18.4337 12.232 17.364 13.594 16.7697 14.5217H16.7998V12.5509H12.2831C12.3424 13.826 12.283 26.14 12.283 26.14Z" fill="white"/>
</svg>
