<svg width="32" height="32" viewBox="0 0 32 32" fill="none" xmlns="http://www.w3.org/2000/svg">
<path d="M9.47685 6C10.435 6 11.3096 6.08533 12.1007 6.25421C12.8918 6.42309 13.5673 6.70041 14.1308 7.08617C14.6944 7.47192 15.1317 7.9839 15.4428 8.62387C15.7539 9.26383 15.9085 10.0531 15.9085 10.9935C15.9085 12.0086 15.6774 12.8548 15.217 13.5321C14.7566 14.2094 14.0739 14.764 13.1727 15.196C14.4135 15.5533 15.3397 16.179 15.9512 17.0714C16.5627 17.9638 16.8685 19.0411 16.8685 20.3015C16.8685 21.3165 16.6711 22.1965 16.2765 22.9396C15.8818 23.6826 15.3503 24.2888 14.6819 24.7581C14.0135 25.2292 13.2527 25.5759 12.3976 25.8016C11.5372 26.0274 10.6501 26.1412 9.76128 26.1394H0V6H9.47685ZM8.91332 14.1507C9.70261 14.1507 10.3515 13.9623 10.8599 13.5872C11.3683 13.2103 11.6225 12.6005 11.6207 11.7544C11.6207 11.2851 11.5354 10.8993 11.3665 10.5989C11.1976 10.2984 10.9719 10.062 10.6892 9.89313C10.4066 9.72425 10.083 9.60693 9.71683 9.54115C9.33996 9.47538 8.95776 9.4416 8.57378 9.44338H4.42999V14.1542L8.91332 14.1507ZM9.16753 22.696C9.58529 22.6978 10.0013 22.6551 10.4084 22.5698C10.803 22.4845 11.1514 22.344 11.4519 22.1467C11.7523 21.9494 11.9923 21.681 12.1718 21.3432C12.3496 21.0054 12.4403 20.5717 12.4403 20.0455C12.4403 19.0127 12.1487 18.2731 11.5656 17.8323C10.9825 17.3896 10.211 17.1692 9.25286 17.1692H4.42999V22.6978L9.16753 22.696ZM22.4397 22.2729C23.0406 22.856 23.9063 23.1476 25.0352 23.1476C25.844 23.1476 26.5391 22.9449 27.1222 22.5414C27.7052 22.1378 28.0626 21.7094 28.1941 21.2579H31.7193C31.1557 23.0071 30.29 24.2568 29.1238 25.0088C27.9577 25.7608 26.548 26.1376 24.8929 26.1376C23.7463 26.1376 22.7117 25.9545 21.7909 25.5883C20.87 25.2221 20.0896 24.6995 19.4497 24.0222C18.8097 23.3449 18.3155 22.5378 17.9689 21.5974C17.6222 20.657 17.448 19.6224 17.448 18.4954C17.448 17.4056 17.6258 16.3906 17.9831 15.4502C18.3404 14.5098 18.8488 13.6974 19.5066 13.0112C20.1643 12.325 20.95 11.7846 21.862 11.3899C22.7739 10.9953 23.7854 10.798 24.8947 10.798C26.1355 10.798 27.2164 11.038 28.139 11.5179C29.0598 11.9979 29.8171 12.6414 30.4091 13.4503C31.0011 14.2591 31.4295 15.18 31.6926 16.2146C31.9557 17.2492 32.0499 18.33 31.9752 19.4589H21.4549C21.51 20.7512 21.8389 21.6916 22.4397 22.2729ZM26.9675 14.6022C26.4875 14.076 25.7587 13.8129 24.7809 13.8129C24.141 13.8129 23.6095 13.9214 23.1881 14.1365C22.7651 14.3533 22.4273 14.62 22.1731 14.94C21.9189 15.26 21.7411 15.5977 21.638 15.955C21.5349 16.3124 21.4727 16.6323 21.4549 16.9132H27.9701C27.7799 15.8999 27.4457 15.1284 26.9675 14.6022ZM20.7687 7.02217H28.9087V9.27983H20.7687V7.02217Z" fill="white"/>
</svg>
