<svg width="720" height="577" viewBox="0 0 720 577" fill="none" xmlns="http://www.w3.org/2000/svg">
<rect width="720" height="577" fill="#151414"/>
<g clip-path="url(#clip0_253_2558)">
<g clip-path="url(#clip1_253_2558)">
<path d="M160 242.833H181.188L196.894 292.89H197.082L212.799 242.833H233.988V308.882H221.313V254.376H221.133L203.337 308.882H190.656L172.87 254.376L172.681 254.565V280.493H160V242.833Z" fill="white"/>
<path d="M249.313 253.149V242.833H288.308V253.241L249.313 253.149ZM249.313 269.516H286.131V279.924H262.569V298.471H288.497V308.88H249.313V269.516Z" fill="white"/>
<path d="M301.274 242.833H317.545L342.719 292.225H342.907V272.642H355.588V308.882H339.407L314.155 259.488H313.966V308.882H301.274V242.833Z" fill="white"/>
<path d="M369.779 242.833H383.034V280.966C382.724 285.655 383.81 290.33 386.155 294.402C387.416 296.022 389.03 297.333 390.875 298.234C392.72 299.136 394.746 299.605 396.799 299.605C398.853 299.605 400.879 299.136 402.724 298.234C404.568 297.333 406.183 296.022 407.444 294.402C409.664 290.285 410.71 285.637 410.469 280.966V270.558H423.719V285.035C423.465 301.942 414.476 310.269 396.752 310.017C379.023 310.269 370.033 301.942 369.781 285.035L369.779 242.833Z" fill="white"/>
<path d="M486.837 308.882H472.075L451.716 276.238H437.436V242.833H451.716C455.375 242.833 459.035 242.865 462.694 242.929C466.111 243.072 469.49 243.709 472.725 244.821C475.694 245.741 478.285 247.598 480.109 250.115C482.075 253.29 483.032 256.986 482.854 260.715C482.93 264.416 481.653 268.017 479.261 270.842C475.851 274.198 471.424 276.328 466.673 276.897L486.837 308.882ZM450.68 271.031H455.034C456.744 271.031 458.451 270.905 460.142 270.654C461.683 270.492 463.187 270.076 464.592 269.423C465.908 268.799 467.047 267.855 467.904 266.677C468.715 265.202 469.109 263.533 469.041 261.85C469.124 260.167 468.73 258.495 467.904 257.026C467.037 255.904 465.897 255.025 464.592 254.472C463.172 253.879 461.673 253.497 460.142 253.337C458.441 253.275 456.739 253.243 455.034 253.241H450.68V271.031Z" fill="white"/>
<path d="M503.099 308.882H489.379L515.307 242.833H530.258L556.195 308.882H541.526L535.848 293.743H517.766L521.539 283.335H532.136L522.581 256.083H522.392L503.099 308.882Z" fill="white"/>
<path d="M281.142 321.227V322.585H281.177C281.661 321.875 282.384 321.363 283.215 321.141C284.045 320.918 284.927 321.002 285.702 321.375C285.938 321.5 286.147 321.672 286.316 321.88C286.484 322.088 286.609 322.328 286.683 322.585C286.979 322.096 287.401 321.695 287.905 321.424C288.416 321.149 288.99 321.008 289.571 321.015C289.994 321.01 290.417 321.061 290.827 321.166C291.177 321.255 291.505 321.415 291.791 321.636C292.062 321.859 292.275 322.144 292.412 322.466C292.569 322.854 292.646 323.27 292.636 323.688V330.442H291.121V324.399C291.121 324.13 291.097 323.86 291.048 323.595C291.006 323.362 290.915 323.141 290.781 322.945C290.641 322.753 290.453 322.602 290.235 322.507C289.95 322.39 289.643 322.335 289.336 322.347C289.013 322.329 288.691 322.376 288.387 322.487C288.084 322.597 287.806 322.768 287.571 322.989C287.354 323.215 287.185 323.484 287.075 323.778C286.965 324.072 286.915 324.385 286.929 324.698V330.439H285.414V324.399C285.417 324.123 285.39 323.848 285.333 323.578C285.283 323.343 285.184 323.121 285.043 322.928C284.909 322.741 284.727 322.594 284.517 322.501C284.249 322.392 283.96 322.34 283.67 322.35C283.276 322.339 282.886 322.431 282.538 322.617C282.244 322.78 281.983 322.997 281.772 323.259C281.586 323.49 281.441 323.752 281.345 324.034C281.265 324.248 281.219 324.473 281.208 324.701V330.442H279.696V321.227H281.142Z" fill="white"/>
<path d="M295.593 323.944C295.771 323.38 296.062 322.858 296.45 322.411C296.837 321.97 297.318 321.62 297.857 321.386C299.096 320.887 300.479 320.887 301.718 321.386C302.253 321.622 302.73 321.972 303.117 322.411C303.504 322.858 303.795 323.38 303.973 323.944C304.168 324.557 304.266 325.198 304.263 325.842C304.267 326.483 304.169 327.121 303.973 327.731C303.794 328.292 303.503 328.811 303.117 329.255C302.732 329.693 302.254 330.039 301.718 330.268C300.478 330.759 299.097 330.759 297.857 330.268C297.317 330.042 296.836 329.695 296.45 329.255C296.064 328.811 295.772 328.292 295.593 327.731C295.397 327.121 295.299 326.483 295.303 325.842C295.3 325.198 295.398 324.557 295.593 323.944ZM297.135 327.331C297.266 327.731 297.476 328.1 297.753 328.416C298.006 328.703 298.319 328.931 298.67 329.084C299.022 329.237 299.401 329.316 299.785 329.316C300.168 329.316 300.547 329.237 300.899 329.084C301.25 328.93 301.562 328.703 301.816 328.416C302.092 328.1 302.302 327.73 302.432 327.331C302.729 326.361 302.729 325.325 302.432 324.356C302.301 323.953 302.091 323.58 301.816 323.259C301.564 322.968 301.251 322.736 300.899 322.579C300.547 322.427 300.168 322.348 299.785 322.348C299.401 322.348 299.022 322.427 298.67 322.579C298.318 322.735 298.005 322.967 297.753 323.259C297.477 323.58 297.267 323.953 297.135 324.356C296.841 325.326 296.841 326.361 297.135 327.331Z" fill="white"/>
<path d="M309.462 330.442L306.037 321.227H307.732L310.312 328.907H310.35L312.863 321.227H314.451L311.078 330.442H309.462Z" fill="white"/>
<path d="M316.822 319.567V317.715H318.332V319.567H316.822ZM318.337 321.224V330.439H316.822V321.227L318.337 321.224Z" fill="white"/>
<path d="M323.007 321.227V322.678H323.042C323.33 322.143 323.765 321.701 324.296 321.404C324.826 321.107 325.431 320.968 326.038 321.003C326.554 320.987 327.069 321.072 327.553 321.253C327.931 321.401 328.268 321.639 328.534 321.947C328.789 322.255 328.969 322.619 329.059 323.009C329.164 323.456 329.214 323.914 329.21 324.373V330.434H327.692V324.202C327.705 323.954 327.668 323.706 327.582 323.473C327.497 323.241 327.366 323.027 327.196 322.846C327.012 322.675 326.795 322.542 326.559 322.456C326.322 322.37 326.071 322.333 325.82 322.347C325.409 322.338 325.001 322.411 324.618 322.562C324.293 322.696 324.003 322.904 323.771 323.169C323.543 323.438 323.371 323.75 323.266 324.086C323.148 324.461 323.091 324.853 323.097 325.247V330.454H321.582V321.227H323.007Z" fill="white"/>
<path d="M339.293 333.034C338.862 333.439 338.35 333.748 337.791 333.942C337.231 334.135 336.638 334.209 336.048 334.157C335.607 334.155 335.168 334.108 334.736 334.015C334.311 333.926 333.902 333.769 333.526 333.551C333.169 333.34 332.861 333.054 332.626 332.712C332.38 332.335 332.244 331.897 332.234 331.446H333.75C333.753 331.701 333.845 331.947 334.008 332.143C334.169 332.335 334.366 332.492 334.588 332.607C334.827 332.729 335.083 332.816 335.346 332.866C335.604 332.918 335.866 332.945 336.13 332.947C336.566 332.96 336.999 332.871 337.395 332.689C337.732 332.522 338.025 332.277 338.248 331.975C338.487 331.647 338.654 331.273 338.739 330.877C338.844 330.416 338.896 329.943 338.893 329.47V328.863H338.855C338.619 329.407 338.2 329.851 337.671 330.117C337.149 330.384 336.571 330.523 335.985 330.52C335.364 330.535 334.748 330.407 334.185 330.146C333.689 329.908 333.251 329.564 332.902 329.139C332.55 328.701 332.287 328.198 332.127 327.659C331.952 327.078 331.865 326.474 331.869 325.868C331.872 325.3 331.945 324.734 332.086 324.184C332.222 323.62 332.463 323.088 332.798 322.614C333.144 322.132 333.596 321.735 334.118 321.453C334.741 321.137 335.434 320.985 336.133 321.012C336.691 321.006 337.242 321.136 337.738 321.392C338.227 321.653 338.624 322.058 338.875 322.553H338.896V321.235H340.321V329.653C340.415 330.869 340.048 332.076 339.293 333.034ZM337.36 328.889C337.703 328.687 337.992 328.407 338.205 328.071C338.428 327.714 338.588 327.321 338.678 326.91C338.779 326.49 338.829 326.059 338.829 325.627C338.83 325.225 338.782 324.824 338.687 324.434C338.599 324.056 338.446 323.696 338.234 323.372C338.016 323.035 337.714 322.762 337.357 322.579C337.001 322.396 336.602 322.31 336.202 322.33C335.769 322.322 335.34 322.422 334.954 322.62C334.618 322.797 334.328 323.051 334.107 323.36C333.879 323.683 333.716 324.047 333.625 324.431C333.522 324.845 333.471 325.27 333.474 325.697C333.473 326.116 333.515 326.534 333.599 326.945C333.676 327.343 333.82 327.726 334.025 328.077C334.223 328.409 334.498 328.69 334.826 328.895C335.205 329.115 335.637 329.224 336.074 329.209C336.523 329.225 336.968 329.117 337.36 328.898V328.889Z" fill="white"/>
<path d="M350.506 328.39C350.644 328.619 350.837 328.809 351.069 328.942C351.312 329.081 351.577 329.179 351.853 329.232C352.149 329.293 352.45 329.323 352.752 329.322C353.002 329.321 353.251 329.304 353.498 329.27C353.747 329.238 353.99 329.171 354.221 329.072C354.435 328.981 354.621 328.837 354.764 328.654C354.913 328.45 354.989 328.202 354.979 327.949C354.987 327.775 354.951 327.602 354.872 327.446C354.794 327.29 354.677 327.158 354.532 327.061C354.189 326.838 353.813 326.672 353.417 326.57C352.972 326.445 352.488 326.331 351.966 326.231C351.469 326.138 350.982 325.996 350.515 325.804C350.088 325.636 349.706 325.371 349.4 325.029C349.082 324.638 348.922 324.142 348.953 323.639C348.941 323.218 349.05 322.803 349.266 322.443C349.469 322.116 349.743 321.838 350.068 321.63C350.409 321.417 350.782 321.261 351.173 321.169C351.572 321.07 351.982 321.019 352.392 321.018C352.88 321.013 353.366 321.058 353.844 321.151C354.257 321.232 354.65 321.389 355.005 321.616C355.347 321.838 355.626 322.144 355.817 322.504C356.034 322.94 356.155 323.417 356.174 323.903H354.659C354.651 323.655 354.58 323.413 354.452 323.201C354.324 322.989 354.143 322.813 353.928 322.69C353.72 322.569 353.495 322.482 353.26 322.431C353.018 322.378 352.771 322.35 352.523 322.35C352.293 322.351 352.063 322.368 351.835 322.402C351.616 322.435 351.403 322.498 351.202 322.591C351.022 322.673 350.863 322.795 350.738 322.948C350.614 323.116 350.552 323.32 350.561 323.529C350.56 323.651 350.585 323.773 350.635 323.885C350.685 323.998 350.759 324.098 350.851 324.179C351.058 324.364 351.297 324.509 351.557 324.605C351.868 324.73 352.189 324.827 352.517 324.896L353.588 325.137C353.964 325.219 354.335 325.321 354.7 325.441C355.042 325.549 355.366 325.707 355.661 325.911C355.939 326.105 356.171 326.358 356.34 326.652C356.522 326.991 356.611 327.373 356.598 327.757C356.618 328.245 356.497 328.727 356.25 329.148C356.021 329.512 355.71 329.817 355.341 330.039C354.951 330.269 354.522 330.429 354.076 330.509C353.615 330.598 353.147 330.644 352.677 330.645C352.189 330.647 351.702 330.594 351.226 330.486C350.786 330.389 350.369 330.211 349.995 329.96C349.636 329.714 349.342 329.383 349.142 328.997C348.914 328.547 348.792 328.05 348.785 327.546H350.3C350.294 327.84 350.365 328.131 350.506 328.39Z" fill="white"/>
<path d="M358.932 323.943C359.109 323.379 359.401 322.858 359.788 322.411C360.176 321.97 360.657 321.62 361.196 321.386C362.433 320.887 363.816 320.887 365.053 321.386C365.588 321.622 366.066 321.972 366.452 322.411C366.839 322.858 367.131 323.379 367.308 323.943C367.504 324.557 367.602 325.198 367.599 325.842C367.603 326.483 367.505 327.121 367.308 327.731C367.129 328.292 366.838 328.81 366.452 329.255C366.067 329.693 365.589 330.039 365.053 330.268C363.814 330.76 362.434 330.76 361.196 330.268C360.656 330.041 360.175 329.694 359.788 329.255C359.402 328.81 359.111 328.292 358.932 327.731C358.735 327.121 358.638 326.483 358.641 325.842C358.638 325.198 358.736 324.557 358.932 323.943ZM360.473 327.331C360.605 327.73 360.815 328.099 361.091 328.416C361.345 328.702 361.658 328.93 362.008 329.084C362.36 329.237 362.739 329.316 363.123 329.316C363.506 329.316 363.886 329.237 364.238 329.084C364.588 328.93 364.901 328.702 365.155 328.416C365.431 328.099 365.64 327.73 365.77 327.331C366.067 326.361 366.067 325.325 365.77 324.356C365.639 323.953 365.43 323.58 365.155 323.258C364.902 322.968 364.589 322.736 364.238 322.579C363.886 322.426 363.506 322.347 363.123 322.347C362.739 322.347 362.36 322.426 362.008 322.579C361.657 322.736 361.344 322.968 361.091 323.258C360.816 323.581 360.606 323.953 360.473 324.356C360.179 325.326 360.179 326.361 360.473 327.331Z" fill="white"/>
<path d="M376.469 330.442V328.991H376.434C376.153 329.519 375.726 329.956 375.203 330.248C374.657 330.525 374.051 330.662 373.438 330.648C372.923 330.662 372.409 330.58 371.923 330.407C371.544 330.264 371.208 330.028 370.945 329.719C370.689 329.411 370.508 329.047 370.417 328.657C370.313 328.211 370.264 327.754 370.269 327.296V321.227H371.784V327.455C371.771 327.703 371.809 327.95 371.895 328.183C371.981 328.415 372.113 328.628 372.283 328.808C372.466 328.979 372.682 329.112 372.917 329.198C373.153 329.283 373.403 329.321 373.653 329.307C374.066 329.316 374.476 329.243 374.861 329.092C375.185 328.959 375.474 328.752 375.702 328.486C375.934 328.218 376.107 327.906 376.213 327.569C376.33 327.193 376.387 326.801 376.382 326.408V321.227H377.897V330.442H376.469Z" fill="white"/>
<path d="M382.494 321.227V322.678H382.529C382.817 322.143 383.252 321.701 383.783 321.404C384.313 321.107 384.918 320.968 385.525 321.003C386.04 320.987 386.554 321.072 387.037 321.253C387.416 321.401 387.754 321.639 388.021 321.947C388.274 322.256 388.453 322.62 388.543 323.009C388.649 323.456 388.7 323.914 388.697 324.373V330.434H387.17V324.202C387.183 323.954 387.145 323.706 387.06 323.473C386.974 323.24 386.842 323.027 386.671 322.846C386.488 322.675 386.272 322.542 386.036 322.456C385.8 322.37 385.549 322.333 385.298 322.347C384.887 322.338 384.479 322.411 384.096 322.562C383.771 322.696 383.481 322.904 383.249 323.169C383.02 323.437 382.848 323.749 382.744 324.086C382.625 324.461 382.568 324.853 382.573 325.247V330.454H381.075V321.227H382.494Z" fill="white"/>
<path d="M398.586 330.439V329.191H398.548C398.312 329.692 397.898 330.086 397.387 330.297C396.827 330.528 396.227 330.643 395.622 330.637C394.979 330.652 394.341 330.518 393.759 330.245C393.246 329.996 392.795 329.636 392.438 329.191C392.079 328.735 391.811 328.215 391.646 327.659C391.465 327.057 391.375 326.432 391.379 325.804C391.375 325.178 391.462 324.554 391.637 323.952C391.795 323.397 392.061 322.88 392.421 322.429C392.778 321.991 393.228 321.638 393.739 321.395C394.316 321.131 394.946 321.001 395.582 321.015C395.839 321.016 396.095 321.041 396.348 321.088C396.63 321.137 396.905 321.218 397.169 321.328C397.445 321.444 397.705 321.593 397.944 321.773C398.19 321.961 398.398 322.195 398.557 322.46H398.594V317.715H400.11V330.439H398.586ZM393.141 327.168C393.246 327.561 393.42 327.933 393.654 328.265C393.889 328.586 394.195 328.848 394.548 329.029C394.943 329.228 395.38 329.328 395.823 329.319C396.248 329.336 396.671 329.245 397.051 329.053C397.431 328.862 397.757 328.577 397.996 328.225C398.226 327.886 398.393 327.509 398.487 327.11C398.586 326.696 398.636 326.271 398.635 325.845C398.637 325.403 398.583 324.964 398.475 324.536C398.378 324.136 398.205 323.757 397.967 323.421C397.731 323.097 397.423 322.832 397.068 322.646C396.653 322.441 396.195 322.341 395.733 322.356C395.28 322.338 394.831 322.438 394.429 322.646C394.083 322.841 393.789 323.117 393.573 323.45C393.352 323.8 393.196 324.186 393.112 324.591C393.016 325.024 392.968 325.465 392.969 325.909C392.969 326.335 393.026 326.76 393.141 327.171V327.168Z" fill="white"/>
<path d="M404.487 328.39C404.626 328.618 404.819 328.807 405.05 328.942C405.293 329.081 405.558 329.179 405.833 329.232C406.13 329.292 406.431 329.323 406.733 329.322C406.983 329.321 407.232 329.304 407.479 329.27C407.729 329.238 407.973 329.171 408.205 329.072C408.418 328.981 408.605 328.837 408.748 328.654C408.895 328.45 408.97 328.201 408.959 327.949C408.968 327.775 408.932 327.601 408.854 327.446C408.775 327.29 408.658 327.157 408.512 327.061C408.171 326.838 407.795 326.673 407.401 326.57C406.956 326.445 406.472 326.331 405.95 326.231C405.453 326.138 404.966 325.995 404.498 325.804C404.073 325.635 403.693 325.369 403.387 325.029C403.068 324.638 402.909 324.142 402.94 323.639C402.929 323.219 403.038 322.804 403.253 322.443C403.458 322.116 403.732 321.838 404.057 321.63C404.397 321.418 404.77 321.262 405.16 321.169C405.56 321.07 405.97 321.019 406.382 321.018C406.869 321.014 407.355 321.058 407.833 321.151C408.246 321.231 408.64 321.389 408.994 321.616C409.337 321.837 409.616 322.143 409.807 322.504C410.024 322.939 410.146 323.416 410.164 323.903H408.649C408.635 323.64 408.554 323.385 408.414 323.163C408.287 322.969 408.117 322.807 407.917 322.69C407.71 322.569 407.484 322.482 407.25 322.431C407.007 322.378 406.759 322.35 406.51 322.35C406.279 322.351 406.05 322.368 405.822 322.402C405.603 322.435 405.39 322.499 405.189 322.591C405.009 322.672 404.851 322.795 404.728 322.948C404.603 323.115 404.54 323.32 404.551 323.528C404.549 323.651 404.575 323.773 404.625 323.885C404.675 323.998 404.748 324.098 404.841 324.179C405.046 324.364 405.284 324.509 405.543 324.605C405.856 324.729 406.178 324.826 406.507 324.896L407.578 325.136C407.958 325.221 408.327 325.322 408.692 325.441C409.034 325.549 409.358 325.708 409.653 325.911C409.931 326.106 410.163 326.358 410.332 326.652C410.515 326.991 410.604 327.372 410.591 327.757C410.608 328.244 410.487 328.726 410.242 329.148C410.014 329.512 409.702 329.817 409.334 330.039C408.944 330.27 408.515 330.429 408.068 330.509C407.607 330.598 407.139 330.644 406.669 330.645C406.181 330.647 405.694 330.593 405.218 330.486C404.78 330.389 404.363 330.211 403.99 329.96C403.631 329.714 403.338 329.383 403.137 328.997C402.908 328.547 402.785 328.05 402.777 327.546H404.292C404.283 327.839 404.35 328.13 404.487 328.39Z" fill="white"/>
<path d="M418.047 322.561V321.226H419.6V319.851C419.578 319.537 419.625 319.222 419.737 318.928C419.85 318.635 420.025 318.369 420.25 318.15C420.79 317.728 421.466 317.522 422.148 317.569C422.312 317.571 422.476 317.583 422.639 317.604C422.805 317.625 422.97 317.661 423.129 317.711V319.029C422.991 318.98 422.848 318.947 422.703 318.93C422.561 318.916 422.419 318.908 422.276 318.907C421.976 318.887 421.676 318.961 421.42 319.119C421.309 319.223 421.225 319.351 421.174 319.494C421.124 319.637 421.108 319.79 421.13 319.941V321.223H422.912V322.559H421.13V330.436H419.614V322.561H418.047Z" fill="white"/>
<path d="M424.926 323.944C425.102 323.379 425.392 322.858 425.779 322.411C426.168 321.97 426.648 321.62 427.187 321.386C428.425 320.887 429.809 320.887 431.047 321.386C431.583 321.622 432.06 321.972 432.447 322.411C432.832 322.859 433.122 323.38 433.3 323.944C433.495 324.557 433.593 325.198 433.59 325.842C433.594 326.483 433.496 327.121 433.3 327.731C433.121 328.292 432.831 328.81 432.447 329.255C432.061 329.693 431.583 330.039 431.047 330.268C429.808 330.759 428.427 330.759 427.187 330.268C426.648 330.041 426.166 329.694 425.779 329.255C425.394 328.811 425.103 328.292 424.926 327.731C424.73 327.121 424.632 326.483 424.636 325.842C424.633 325.198 424.731 324.557 424.926 323.944ZM426.467 327.331C426.597 327.73 426.807 328.1 427.083 328.416C427.337 328.703 427.649 328.93 428 329.084C428.352 329.237 428.731 329.316 429.114 329.316C429.498 329.316 429.877 329.237 430.229 329.084C430.579 328.93 430.892 328.702 431.146 328.416C431.422 328.1 431.631 327.73 431.762 327.331C432.059 326.361 432.059 325.325 431.762 324.356C431.63 323.953 431.421 323.58 431.146 323.259C430.893 322.968 430.58 322.737 430.229 322.579C429.877 322.427 429.498 322.348 429.114 322.348C428.731 322.348 428.352 322.427 428 322.579C427.648 322.736 427.335 322.968 427.083 323.259C426.808 323.58 426.598 323.953 426.467 324.356C426.17 325.325 426.17 326.361 426.467 327.331Z" fill="white"/>
<path d="M437.636 321.224V323.165H437.671C437.967 322.502 438.435 321.929 439.026 321.508C439.634 321.132 440.345 320.958 441.058 321.009V322.611C440.53 322.597 440.003 322.682 439.505 322.861C439.103 323.009 438.746 323.262 438.472 323.592C438.196 323.932 437.998 324.328 437.892 324.753C437.766 325.269 437.706 325.798 437.715 326.329V330.43H436.199V321.224H437.636Z" fill="white"/>
<path d="M450.364 321.227V322.585H450.398C450.883 321.875 451.607 321.362 452.438 321.14C453.269 320.918 454.152 321.001 454.926 321.375C455.163 321.5 455.371 321.672 455.539 321.88C455.707 322.088 455.832 322.328 455.904 322.585C456.201 322.097 456.623 321.696 457.126 321.424C457.638 321.149 458.211 321.008 458.792 321.015C459.216 321.01 459.639 321.061 460.049 321.166C460.399 321.255 460.727 321.415 461.013 321.636C461.284 321.859 461.497 322.144 461.634 322.466C461.792 322.854 461.868 323.27 461.857 323.688V330.442H460.342V324.399C460.344 324.13 460.32 323.86 460.27 323.595C460.229 323.362 460.138 323.14 460.003 322.945C459.863 322.754 459.676 322.603 459.46 322.507C459.175 322.39 458.868 322.336 458.56 322.347C458.238 322.329 457.915 322.377 457.612 322.487C457.309 322.597 457.031 322.768 456.796 322.989C456.579 323.215 456.41 323.484 456.3 323.778C456.189 324.072 456.14 324.385 456.154 324.698V330.439H454.627V324.399C454.629 324.123 454.602 323.848 454.546 323.578C454.494 323.344 454.396 323.123 454.256 322.928C454.122 322.742 453.94 322.594 453.73 322.501C453.462 322.391 453.173 322.339 452.883 322.35C452.489 322.339 452.099 322.431 451.751 322.617C451.191 322.926 450.766 323.432 450.558 324.036C450.479 324.251 450.434 324.476 450.425 324.704V330.445H448.909V321.227H450.364Z" fill="white"/>
<path d="M464.812 323.943C464.988 323.379 465.28 322.857 465.669 322.411C466.056 321.97 466.537 321.62 467.076 321.386C468.314 320.887 469.696 320.887 470.934 321.386C471.469 321.621 471.947 321.971 472.333 322.411C472.721 322.857 473.013 323.379 473.189 323.943C473.384 324.557 473.482 325.198 473.479 325.842C473.483 326.483 473.385 327.121 473.189 327.731C473.012 328.293 472.72 328.812 472.333 329.255C471.948 329.693 471.47 330.04 470.934 330.268C469.695 330.76 468.315 330.76 467.076 330.268C466.536 330.041 466.055 329.695 465.669 329.255C465.281 328.812 464.99 328.293 464.812 327.731C464.616 327.121 464.518 326.483 464.522 325.842C464.519 325.198 464.617 324.557 464.812 323.943ZM466.354 327.331C466.482 327.73 466.69 328.1 466.966 328.416C467.22 328.702 467.533 328.93 467.883 329.084C468.234 329.237 468.613 329.316 468.996 329.316C469.379 329.316 469.758 329.237 470.109 329.084C470.46 328.93 470.773 328.702 471.027 328.416C471.303 328.099 471.512 327.73 471.642 327.331C471.939 326.361 471.939 325.325 471.642 324.356C471.511 323.953 471.302 323.58 471.027 323.258C470.774 322.968 470.461 322.736 470.109 322.579C469.758 322.426 469.379 322.348 468.996 322.348C468.613 322.348 468.234 322.426 467.883 322.579C467.532 322.736 467.219 322.968 466.966 323.258C466.691 323.58 466.483 323.953 466.354 324.356C466.057 325.325 466.057 326.361 466.354 327.331Z" fill="white"/>
<path d="M478.68 330.442L475.258 321.227H476.95L479.534 328.907H479.569L482.082 321.227H483.67L480.3 330.442H478.68Z" fill="white"/>
<path d="M486.038 319.567V317.715H487.553V319.567H486.038ZM487.553 321.224V330.439H486.038V321.227L487.553 321.224Z" fill="white"/>
<path d="M492.223 321.227V322.678H492.258C492.546 322.143 492.981 321.701 493.511 321.405C494.041 321.108 494.644 320.969 495.251 321.003C495.767 320.987 496.282 321.072 496.766 321.253C497.144 321.401 497.481 321.639 497.747 321.946C498.001 322.256 498.181 322.619 498.272 323.009C498.376 323.456 498.426 323.914 498.42 324.373V330.433H496.905V324.202C496.918 323.954 496.88 323.706 496.795 323.473C496.709 323.24 496.577 323.027 496.406 322.846C496.223 322.675 496.007 322.542 495.772 322.457C495.537 322.371 495.286 322.334 495.036 322.347C494.624 322.338 494.215 322.411 493.831 322.562C493.506 322.695 493.217 322.903 492.987 323.168C492.756 323.436 492.582 323.748 492.476 324.086C492.36 324.461 492.303 324.853 492.308 325.247V330.454H490.792V321.227H492.223Z" fill="white"/>
<path d="M508.515 333.034C508.084 333.439 507.572 333.748 507.012 333.941C506.453 334.135 505.86 334.208 505.27 334.157C504.829 334.155 504.39 334.108 503.958 334.015C503.533 333.926 503.124 333.77 502.748 333.551C502.39 333.34 502.081 333.054 501.845 332.712C501.599 332.335 501.464 331.896 501.456 331.446H502.972C502.975 331.702 503.068 331.948 503.233 332.143C503.393 332.335 503.591 332.493 503.813 332.607C504.052 332.728 504.307 332.815 504.571 332.866C504.829 332.918 505.091 332.945 505.354 332.947C505.791 332.96 506.224 332.872 506.62 332.689C506.958 332.521 507.251 332.277 507.476 331.974C507.713 331.646 507.88 331.273 507.967 330.877C508.07 330.415 508.121 329.943 508.118 329.47V328.863H508.08C507.844 329.407 507.425 329.85 506.896 330.117C506.374 330.385 505.796 330.523 505.209 330.52C504.59 330.535 503.975 330.407 503.413 330.146C502.916 329.908 502.477 329.564 502.127 329.139C501.774 328.701 501.511 328.198 501.352 327.658C501.177 327.078 501.09 326.474 501.094 325.868C501.096 325.3 501.168 324.734 501.308 324.184C501.445 323.62 501.687 323.087 502.022 322.614C502.367 322.132 502.818 321.734 503.34 321.453C503.962 321.132 504.655 320.975 505.354 320.997C505.912 320.991 506.462 321.122 506.957 321.377C507.447 321.638 507.845 322.043 508.097 322.538H508.118V321.221H509.546V329.638C509.642 330.859 509.274 332.072 508.515 333.034ZM506.582 328.889C506.924 328.687 507.213 328.407 507.424 328.071C507.647 327.714 507.807 327.321 507.897 326.91C507.999 326.49 508.05 326.059 508.051 325.627C508.051 325.225 508.002 324.824 507.906 324.434C507.818 324.056 507.665 323.696 507.453 323.371C507.235 323.035 506.933 322.762 506.576 322.579C506.22 322.396 505.821 322.31 505.421 322.329C504.988 322.322 504.559 322.422 504.173 322.62C503.837 322.797 503.547 323.051 503.326 323.36C503.1 323.684 502.938 324.047 502.847 324.431C502.743 324.845 502.691 325.27 502.693 325.696C502.694 326.115 502.735 326.534 502.818 326.944C502.895 327.343 503.039 327.726 503.244 328.076C503.443 328.41 503.718 328.691 504.048 328.895C504.426 329.114 504.857 329.223 505.294 329.208C505.743 329.224 506.189 329.117 506.582 328.898V328.889Z" fill="white"/>
<path d="M519.719 328.39C519.858 328.618 520.051 328.807 520.282 328.942C520.526 329.081 520.79 329.179 521.066 329.232C521.362 329.293 521.663 329.323 521.965 329.322C522.215 329.321 522.464 329.304 522.711 329.27C522.96 329.237 523.203 329.171 523.434 329.072C523.648 328.982 523.835 328.838 523.977 328.654C524.126 328.45 524.202 328.202 524.192 327.949C524.203 327.775 524.169 327.602 524.093 327.445C524.017 327.288 523.902 327.154 523.759 327.055C523.418 326.833 523.042 326.667 522.648 326.565C522.201 326.44 521.719 326.326 521.196 326.225C520.699 326.132 520.213 325.989 519.745 325.798C519.32 325.629 518.939 325.364 518.633 325.023C518.314 324.633 518.155 324.136 518.186 323.633C518.176 323.213 518.283 322.799 518.497 322.437C518.701 322.11 518.976 321.832 519.301 321.624C519.641 321.411 520.013 321.255 520.404 321.163C520.804 321.064 521.214 321.013 521.626 321.012C522.113 321.008 522.599 321.052 523.077 321.146C523.49 321.226 523.884 321.383 524.238 321.61C524.58 321.832 524.86 322.138 525.051 322.498C525.267 322.934 525.388 323.411 525.405 323.897H523.89C523.882 323.649 523.81 323.408 523.682 323.195C523.554 322.983 523.374 322.807 523.158 322.684C522.951 322.563 522.726 322.476 522.491 322.426C522.248 322.372 522 322.344 521.751 322.344C521.521 322.345 521.292 322.363 521.066 322.397C520.847 322.429 520.634 322.492 520.433 322.585C520.253 322.666 520.095 322.788 519.971 322.942C519.846 323.109 519.782 323.314 519.791 323.523C519.79 323.646 519.815 323.767 519.866 323.879C519.916 323.992 519.989 324.092 520.082 324.173C520.288 324.358 520.527 324.503 520.787 324.599C521.099 324.724 521.422 324.821 521.751 324.89L522.819 325.131C523.195 325.213 523.567 325.315 523.933 325.435C524.276 325.543 524.601 325.702 524.897 325.906C525.174 326.1 525.404 326.353 525.573 326.646C525.758 326.984 525.848 327.366 525.834 327.752C525.852 328.239 525.73 328.721 525.483 329.142C525.255 329.507 524.944 329.812 524.575 330.033C524.185 330.265 523.756 330.424 523.309 330.503C522.848 330.593 522.38 330.638 521.91 330.64C521.422 330.641 520.935 330.588 520.459 330.48C520.021 330.383 519.604 330.205 519.231 329.955C518.871 329.708 518.578 329.377 518.375 328.991C518.147 328.541 518.025 328.044 518.018 327.54H519.533C519.52 327.835 519.584 328.128 519.719 328.39Z" fill="white"/>
<path d="M532.307 321.226V322.561H530.47V328.288C530.465 328.431 530.48 328.575 530.513 328.715C530.539 328.815 530.598 328.903 530.682 328.964C530.785 329.031 530.904 329.071 531.027 329.08C531.22 329.1 531.414 329.109 531.608 329.106H532.304V330.445H531.143C530.806 330.449 530.469 330.422 530.136 330.363C529.888 330.327 529.654 330.227 529.457 330.073C529.273 329.912 529.14 329.701 529.074 329.466C528.982 329.13 528.941 328.782 528.952 328.433V322.57H527.382V321.235H528.952V318.472H530.467V321.235L532.307 321.226Z" fill="white"/>
<path d="M541.073 330.442V328.991H541.038C540.758 329.519 540.332 329.955 539.81 330.248C539.264 330.524 538.658 330.662 538.045 330.648C537.53 330.662 537.016 330.58 536.53 330.407C536.152 330.263 535.816 330.027 535.552 329.719C535.297 329.411 535.117 329.047 535.027 328.657C534.921 328.211 534.87 327.754 534.876 327.296V321.227H536.391V327.455C536.378 327.703 536.415 327.95 536.5 328.183C536.585 328.415 536.717 328.628 536.887 328.808C537.071 328.979 537.287 329.112 537.523 329.198C537.759 329.283 538.01 329.321 538.26 329.307C538.672 329.316 539.081 329.243 539.465 329.092C539.79 328.96 540.08 328.752 540.309 328.486C540.539 328.217 540.712 327.905 540.817 327.569C540.935 327.193 540.992 326.801 540.986 326.408V321.227H542.501V330.442H541.073Z" fill="white"/>
<path d="M544.744 322.562V321.226H546.294V319.851C546.273 319.537 546.32 319.222 546.432 318.929C546.544 318.635 546.719 318.369 546.944 318.15C547.484 317.728 548.16 317.522 548.843 317.569C549.006 317.571 549.169 317.583 549.33 317.604C549.497 317.625 549.661 317.661 549.821 317.711V319.029C549.683 318.98 549.54 318.947 549.394 318.931C549.252 318.916 549.11 318.908 548.967 318.907C548.667 318.889 548.368 318.963 548.111 319.119C548.001 319.223 547.917 319.352 547.866 319.495C547.816 319.638 547.8 319.79 547.821 319.941V321.223H549.603V322.559H547.821V330.436H546.306V322.562H544.744Z" fill="white"/>
<path d="M550.59 322.561V321.226H552.14V319.85C552.118 319.537 552.165 319.222 552.278 318.928C552.39 318.635 552.565 318.369 552.79 318.15C553.33 317.729 554.006 317.522 554.688 317.569C554.852 317.571 555.014 317.583 555.176 317.604C555.342 317.625 555.507 317.661 555.667 317.711V319.029C555.529 318.98 555.385 318.947 555.24 318.93C555.098 318.916 554.956 318.908 554.813 318.907C554.513 318.889 554.214 318.963 553.957 319.119C553.847 319.223 553.763 319.352 553.712 319.494C553.662 319.637 553.646 319.79 553.667 319.94V321.223H555.449V322.559H553.667V330.436H552.152V322.561H550.59Z" fill="white"/>
<path d="M560 328.462V330.441H558.023V328.462H560Z" fill="white"/>
</g>
</g>
<defs>
<clipPath id="clip0_253_2558">
<rect width="400" height="91.3331" fill="white" transform="translate(160 242.833)"/>
</clipPath>
<clipPath id="clip1_253_2558">
<rect width="400" height="91.3331" fill="white" transform="translate(160 242.833)"/>
</clipPath>
</defs>
</svg>
