<svg width="114" height="37" viewBox="0 0 114 37" fill="none" xmlns="http://www.w3.org/2000/svg">
<path d="M16.224 0.884003C17.712 0.884003 19.2 1.076 20.64 1.412C22.08 1.748 23.472 2.276 24.768 3.044C26.064 3.812 27.264 4.82 28.32 6.068C29.376 7.316 30.24 8.852 30.96 10.676L23.856 12.548C23.088 10.724 22.128 9.38 20.928 8.42C19.728 7.508 18.144 7.028 16.224 7.028C13.536 7.028 11.376 8.036 9.84 10.004C8.304 11.972 7.536 14.756 7.536 18.404C7.536 22.052 8.256 24.884 9.744 26.9C11.184 28.964 13.392 29.972 16.32 29.972C18.528 29.972 20.256 29.444 21.6 28.388C22.896 27.332 23.904 25.748 24.672 23.684L31.632 25.844C30.288 29.3 28.224 31.892 25.488 33.572C22.704 35.3 19.536 36.116 15.984 36.116C14.064 36.116 12.144 35.828 10.224 35.156C8.304 34.532 6.624 33.524 5.088 32.132C3.552 30.74 2.352 28.916 1.392 26.66C0.432 24.452 0 21.716 0 18.452C0 15.38 0.432 12.692 1.344 10.484C2.256 8.276 3.456 6.452 4.992 5.012C6.48 3.572 8.208 2.564 10.176 1.892C12.096 1.22 14.112 0.884003 16.224 0.884003Z" fill="white"/>
<path d="M45.09 9.14C48.93 9.14 51.714 9.86 53.346 11.3C54.978 12.74 55.842 14.708 55.842 17.204V29.732C55.842 30.788 55.89 31.748 55.986 32.612C56.082 33.524 56.322 34.436 56.706 35.3H49.746C49.362 34.532 49.074 33.668 48.93 32.708C47.97 33.908 46.866 34.724 45.57 35.204C44.274 35.684 42.93 35.924 41.49 35.924C40.146 35.924 38.898 35.732 37.842 35.348C36.786 34.964 35.874 34.436 35.154 33.716C34.434 33.044 33.906 32.228 33.522 31.268C33.138 30.308 32.946 29.3 32.946 28.148C32.946 25.748 33.714 23.828 35.346 22.388C36.93 20.948 39.666 19.94 43.506 19.46L48.834 18.788V17.684C48.834 16.34 48.546 15.428 48.018 14.9C47.49 14.372 46.482 14.084 44.946 14.084C43.506 14.084 42.45 14.372 41.826 14.852C41.202 15.38 40.866 16.244 40.866 17.444H33.954C34.002 14.66 35.01 12.596 36.978 11.204C38.946 9.86 41.634 9.14 45.09 9.14ZM45.234 23.732C43.362 24.02 42.018 24.404 41.25 24.98C40.482 25.556 40.098 26.42 40.098 27.476C40.098 28.388 40.338 29.108 40.914 29.684C41.442 30.26 42.306 30.5 43.506 30.5C44.178 30.5 44.85 30.404 45.522 30.164C46.194 29.924 46.77 29.588 47.25 29.156C47.73 28.772 48.114 28.244 48.402 27.668C48.69 27.092 48.834 26.468 48.834 25.748V23.252L45.234 23.732Z" fill="white"/>
<path d="M73.4273 9.14C74.0993 9.14 74.7713 9.188 75.3473 9.284V16.1C74.8672 16.1 74.5312 16.052 74.3392 16.052H73.8112C72.8032 16.052 71.8913 16.196 71.0273 16.436C70.1633 16.724 69.4433 17.156 68.8193 17.78C68.1953 18.452 67.7153 19.316 67.3313 20.468C66.9473 21.62 66.8033 23.012 66.8033 24.74V35.3H59.7952V9.812H66.6113V13.94C67.4753 12.212 68.4833 11.012 69.6353 10.244C70.7873 9.524 72.0833 9.14 73.4273 9.14Z" fill="white"/>
<path d="M88.671 9.188C90.687 9.188 92.559 9.572 94.191 10.244C95.823 10.916 97.263 11.876 98.415 13.076C99.567 14.276 100.431 15.668 101.055 17.3C101.679 18.932 102.015 20.708 102.015 22.58C102.015 24.596 101.679 26.42 101.103 28.052C100.479 29.684 99.615 31.124 98.463 32.276C97.311 33.476 95.871 34.388 94.239 35.012C92.607 35.684 90.735 35.972 88.671 35.972C86.559 35.972 84.687 35.636 83.055 34.964C81.423 34.292 80.031 33.38 78.879 32.18C77.727 31.028 76.863 29.588 76.287 27.956C75.663 26.324 75.375 24.548 75.375 22.58C75.375 20.66 75.663 18.836 76.287 17.204C76.863 15.572 77.775 14.132 78.927 12.932C80.079 11.78 81.471 10.868 83.103 10.196C84.735 9.524 86.559 9.188 88.671 9.188ZM88.671 14.756C86.847 14.756 85.359 15.428 84.303 16.676C83.247 17.972 82.719 19.892 82.719 22.484C82.719 25.076 83.199 27.044 84.255 28.388C85.311 29.732 86.751 30.404 88.671 30.404C90.543 30.404 91.983 29.732 93.039 28.388C94.095 27.044 94.623 25.076 94.623 22.484C94.623 19.892 94.047 17.972 92.991 16.676C91.935 15.428 90.495 14.756 88.671 14.756Z" fill="white"/>
<path d="M108.553 26.996C109.129 26.996 109.705 27.14 110.281 27.38C110.809 27.62 111.289 27.956 111.721 28.34C112.105 28.724 112.441 29.204 112.681 29.78C112.921 30.356 113.065 30.932 113.065 31.508C113.065 32.132 112.921 32.708 112.681 33.236C112.441 33.812 112.105 34.292 111.721 34.676C111.289 35.06 110.809 35.396 110.281 35.636C109.705 35.876 109.129 35.972 108.553 35.972C107.929 35.972 107.353 35.876 106.777 35.636C106.201 35.396 105.721 35.06 105.337 34.628C104.905 34.244 104.569 33.764 104.329 33.188C104.089 32.66 103.993 32.084 103.993 31.46C103.993 30.884 104.089 30.308 104.329 29.732C104.569 29.204 104.905 28.724 105.337 28.34C105.721 27.956 106.201 27.62 106.777 27.38C107.353 27.14 107.929 26.996 108.553 26.996Z" fill="white"/>
</svg>
